<?xml version="1.0" encoding="utf-8"?><svg viewBox="0 0 35 35" xmlns="http://www.w3.org/2000/svg" xmlns:xlink="http://www.w3.org/1999/xlink"><style>:root>svg{display:none}:root>svg:target{display:block}</style><svg fill="none" viewBox="0 0 35 35" id="burger" xmlns="http://www.w3.org/2000/svg"><g clip-path="url(#aaclip0)" fill="#FF7A00"><path d="M12.713 0H2.665A2.668 2.668 0 000 2.665v10.048a2.668 2.668 0 002.665 2.665h10.048a2.668 2.668 0 002.665-2.665V2.665A2.668 2.668 0 0012.713 0zM32.334 0H22.286a2.668 2.668 0 00-2.665 2.665v10.048a2.668 2.668 0 002.665 2.665h10.048A2.668 2.668 0 0035 12.713V2.665A2.668 2.668 0 0032.334 0zM12.713 19.622H2.665A2.668 2.668 0 000 22.287v10.048A2.668 2.668 0 002.665 35h10.048a2.668 2.668 0 002.665-2.665V22.286a2.668 2.668 0 00-2.665-2.664zM32.334 19.622H22.286a2.668 2.668 0 00-2.665 2.665v10.048A2.668 2.668 0 0022.286 35h10.048A2.668 2.668 0 0035 32.335V22.286a2.668 2.668 0 00-2.665-2.664z"/></g><defs><clipPath id="aaclip0"><path fill="#fff" d="M0 0h35v35H0z"/></clipPath></defs></svg><svg fill="none" viewBox="0 0 25 25" id="calendar" xmlns="http://www.w3.org/2000/svg"><path d="M6.248 0c-.493 0-.893.4-.893.893v1.786h1.786V.893C7.141.4 6.741 0 6.248 0zM18.748 0c-.493 0-.893.4-.893.893v1.786h1.786V.893c0-.493-.4-.893-.893-.893z" fill="#FF7A00"/><path d="M22.321 2.678h-2.678V6.25a.893.893 0 01-1.786 0V2.678H7.143V6.25a.893.893 0 11-1.786 0V2.678H2.68C1.199 2.678 0 3.878 0 5.357v16.964C0 23.801 1.2 25 2.679 25H22.32C23.801 25 25 23.8 25 22.32V5.357c0-1.48-1.2-2.679-2.679-2.679zm.893 19.643c0 .493-.4.893-.893.893H2.68a.893.893 0 01-.893-.893V10.714h21.428v11.607z" fill="#FF7A00"/><path d="M7.143 12.5H5.358a.893.893 0 100 1.786h1.785a.893.893 0 000-1.786zM13.393 12.5h-1.785a.893.893 0 100 1.786h1.785a.893.893 0 000-1.786zM19.643 12.5h-1.785a.893.893 0 100 1.786h1.785a.893.893 0 000-1.786zM7.143 16.072H5.358a.893.893 0 000 1.785h1.785a.893.893 0 000-1.785zM13.393 16.072h-1.785a.893.893 0 000 1.785h1.785a.893.893 0 000-1.785zM19.643 16.072h-1.785a.893.893 0 000 1.785h1.785a.893.893 0 000-1.785zM7.143 19.643H5.358a.893.893 0 000 1.785h1.785a.893.893 0 100-1.785zM13.393 19.643h-1.785a.893.893 0 000 1.786h1.785a.893.893 0 000-1.786zM19.643 19.643h-1.785a.893.893 0 000 1.786h1.785a.893.893 0 000-1.786z" fill="#FF7A00"/></svg><svg fill="none" viewBox="0 0 10 8" id="checkbox" xmlns="http://www.w3.org/2000/svg"><path fill-rule="evenodd" clip-rule="evenodd" d="M9.327.621a.5.5 0 01.052.706l-5.177 6a.5.5 0 01-.757 0L.621 4.054A.5.5 0 011.38 3.4l2.445 2.834L8.62.673a.5.5 0 01.706-.052z" fill="#fff"/></svg><svg fill="none" viewBox="0 0 17 17" id="close-modal" xmlns="http://www.w3.org/2000/svg"><path fill-rule="evenodd" clip-rule="evenodd" d="M15.293 16.707l-15-15L1.707.293l15 15-1.414 1.414z" fill="#728DB8"/><path fill-rule="evenodd" clip-rule="evenodd" d="M16.707 1.707l-15 15-1.414-1.414 15-15 1.414 1.414z" fill="#728DB8"/></svg><svg fill="none" viewBox="0 0 21 13" id="collapse" xmlns="http://www.w3.org/2000/svg"><path fill-rule="evenodd" clip-rule="evenodd" d="M1.05 1.228a1.5 1.5 0 012.121.022L10.35 8.58l7.5-7.35a1.5 1.5 0 012.1 2.142l-8.572 8.4a1.5 1.5 0 01-2.121-.021l-8.229-8.4a1.5 1.5 0 01.022-2.122z" fill="#FF7A00"/></svg><svg fill="none" viewBox="0 0 15 15" id="edit" xmlns="http://www.w3.org/2000/svg"><g clip-path="url(#afclip0)" fill="#FF7A00"><path d="M11.875 7.529a.625.625 0 00-.625.625v5c0 .344-.28.625-.625.625h-8.75a.626.626 0 01-.625-.625v-8.75c0-.345.28-.625.625-.625h5a.625.625 0 100-1.25h-5A1.877 1.877 0 000 4.404v8.75c0 1.034.841 1.875 1.875 1.875h8.75a1.877 1.877 0 001.875-1.875v-5a.624.624 0 00-.625-.625z"/><path d="M5.86 6.96a.316.316 0 00-.086.159l-.442 2.21a.314.314 0 00.368.367l2.21-.441a.311.311 0 00.16-.086l4.945-4.945-2.21-2.21L5.86 6.96zM14.543.486c-.61-.61-1.6-.61-2.21 0l-.864.865 2.21 2.21.864-.865a1.55 1.55 0 00.458-1.105c0-.417-.163-.81-.458-1.105z"/></g><defs><clipPath id="afclip0"><path fill="#fff" d="M0 0h15v15H0z"/></clipPath></defs></svg><svg fill="none" viewBox="0 0 15 15" id="edit-photo" xmlns="http://www.w3.org/2000/svg"><path d="M3.906 11.582c-1 0-1.89-.64-2.214-1.595l-.022-.072a2.281 2.281 0 01-.108-.677V4.977L.046 10.038a1.42 1.42 0 00.995 1.722l9.665 2.588c.12.031.24.046.36.046.622 0 1.19-.413 1.35-1.022l.563-1.79H3.906zM5.623 5.02a1.251 1.251 0 000-2.501c-.69 0-1.25.56-1.25 1.25s.56 1.25 1.25 1.25z" fill="#FF7A00"/><path d="M13.438.645H4.062c-.86 0-1.562.7-1.562 1.562v6.875c0 .862.701 1.563 1.563 1.563h9.375c.861 0 1.562-.701 1.562-1.563V2.207C15 1.346 14.3.645 13.438.645zm-9.376 1.25h9.376c.172 0 .312.14.312.312v4.437L11.776 4.34a1.12 1.12 0 00-.838-.384 1.092 1.092 0 00-.835.394L7.78 7.137l-.756-.755a1.097 1.097 0 00-1.55 0L3.75 8.107v-5.9c0-.172.14-.312.313-.312z" fill="#FF7A00"/></svg><svg fill="none" viewBox="0 0 25 25" id="instagram" xmlns="http://www.w3.org/2000/svg"><path d="M18.233 0H6.767A6.775 6.775 0 000 6.767v11.466A6.775 6.775 0 006.767 25h11.466A6.775 6.775 0 0025 18.233V6.767A6.775 6.775 0 0018.233 0zM12.5 19.336A6.843 6.843 0 015.664 12.5 6.843 6.843 0 0112.5 5.664a6.843 6.843 0 016.836 6.836 6.843 6.843 0 01-6.836 6.836zm7-12.06a2.022 2.022 0 01-2.02-2.02c0-1.113.905-2.02 2.02-2.02 1.113 0 2.02.907 2.02 2.02 0 1.114-.907 2.02-2.02 2.02z" fill="#728DB8"/><path d="M12.499 7.13a5.376 5.376 0 00-5.37 5.37c0 2.961 2.41 5.37 5.37 5.37 2.961 0 5.37-2.409 5.37-5.37a5.376 5.376 0 00-5.37-5.37zM19.5 4.702a.555.555 0 10.001 1.11.555.555 0 00-.001-1.11z" fill="#728DB8"/></svg><svg fill="none" viewBox="0 0 25 25" id="locate" xmlns="http://www.w3.org/2000/svg"><path d="M12.5 0C7.506 0 3.444 4.062 3.444 9.054c0 6.196 8.103 15.291 8.448 15.676.324.36.89.36 1.213 0 .345-.385 8.447-9.48 8.447-15.676C21.553 4.062 17.492 0 12.5 0zm0 13.61a4.56 4.56 0 01-4.556-4.556A4.56 4.56 0 0112.5 4.499a4.56 4.56 0 014.556 4.555 4.56 4.56 0 01-4.556 4.555z" fill="#FF7A00"/></svg><svg fill="none" viewBox="0 0 18 18" id="login" xmlns="http://www.w3.org/2000/svg"><g clip-path="url(#ajclip0)" fill="#728DB8"><path d="M3.375 18v-3.375h2.25v1.125h9V2.25h-9v1.125h-2.25V0h13.5v18h-13.5z"/><path d="M5.489 6.42l1.59-1.59L11.25 9l-4.17 4.17-1.591-1.59 1.454-1.455H1.125v-2.25h5.818L5.49 6.42z"/></g><defs><clipPath id="ajclip0"><path fill="#fff" transform="matrix(1 0 0 -1 0 18)" d="M0 0h18v18H0z"/></clipPath></defs></svg><svg fill="none" viewBox="0 0 15 15" id="logout" xmlns="http://www.w3.org/2000/svg"><g clip-path="url(#akclip0)" fill="#728DB8"><path d="M2.5 1.5h7.938V3h1.5V0H1v15h10.938v-2.75h-1.5v1.25H2.5v-12z"/><path fill-rule="evenodd" clip-rule="evenodd" d="M14.25 7.606a.75.75 0 01-.258.553l-2.77 2.407a.75.75 0 01-.984-1.132l1.256-1.091h-6.49a.75.75 0 110-1.5H11.6l-1.383-1.295a.75.75 0 111.025-1.096l2.77 2.593a.75.75 0 01.237.561z"/></g><defs><clipPath id="akclip0"><path fill="#fff" d="M0 0h15v15H0z"/></clipPath></defs></svg><svg fill="none" viewBox="0 0 15 15" id="logout-white" xmlns="http://www.w3.org/2000/svg"><g clip-path="url(#alclip0)" fill="#fff"><path d="M2.5 1.5h7.938V3h1.5V0H1v15h10.938v-2.75h-1.5v1.25H2.5v-12z"/><path fill-rule="evenodd" clip-rule="evenodd" d="M14.25 7.606a.75.75 0 01-.258.553l-2.77 2.407a.75.75 0 01-.984-1.132l1.256-1.091h-6.49a.75.75 0 110-1.5H11.6l-1.383-1.295a.75.75 0 111.025-1.096l2.77 2.593a.75.75 0 01.237.561z"/></g><defs><clipPath id="alclip0"><path fill="#fff" d="M0 0h15v15H0z"/></clipPath></defs></svg><svg fill="none" viewBox="0 0 25 25" id="messenger" xmlns="http://www.w3.org/2000/svg"><path d="M12.5 1C6.15 1 1 5.8 1 11.75c0 3.15 1.45 6.1 4 8.15v4.4l4.3-2.25c1.05.3 2.1.4 3.2.4 6.35 0 11.5-4.8 11.5-10.75C24 5.8 18.85 1 12.5 1zm1.15 14.3l-2.9-3.1-5.4 3.05 6-6.35 2.95 2.95 5.25-2.95-5.9 6.4z" fill="#728DB8"/></svg><svg fill="none" viewBox="0 0 16 28" id="next-slider" xmlns="http://www.w3.org/2000/svg"><path fill-rule="evenodd" clip-rule="evenodd" d="M.928 27.05a1.5 1.5 0 01.022-2.122L11.88 14.223.929 3.05A1.5 1.5 0 113.07.95l12 12.245a1.5 1.5 0 01-.021 2.121l-12 11.755a1.5 1.5 0 01-2.122-.021z" fill="#FF7A00"/></svg><svg fill="none" viewBox="0 0 7 19" id="next-slider-course" xmlns="http://www.w3.org/2000/svg"><path fill-rule="evenodd" clip-rule="evenodd" d="M.485 18.857a1 1 0 01-.342-1.372L4.84 9.663.134 1.499A1 1 0 011.866.5l5 8.674a1 1 0 01-.009 1.014l-5 8.327a1 1 0 01-1.372.342z" fill="#FF7A00"/></svg><svg fill="none" viewBox="0 0 16 28" id="prev-slider" xmlns="http://www.w3.org/2000/svg"><path fill-rule="evenodd" clip-rule="evenodd" d="M15.072.95a1.5 1.5 0 01-.022 2.122L4.12 13.777l10.95 11.173a1.5 1.5 0 11-2.142 2.1l-12-12.245a1.5 1.5 0 01.021-2.121l12-11.756a1.5 1.5 0 012.122.022z" fill="#FF7A00"/></svg><svg fill="none" viewBox="0 0 7 19" id="prev-slider-course" xmlns="http://www.w3.org/2000/svg"><path fill-rule="evenodd" clip-rule="evenodd" d="M6.515.143a1 1 0 01.342 1.372L2.16 9.337l4.706 8.164a1 1 0 01-1.732.999l-5-8.674a1 1 0 01.009-1.014l5-8.327A1 1 0 016.515.143z" fill="#FF7A00"/></svg><svg fill="none" viewBox="0 0 15 15" id="registration" xmlns="http://www.w3.org/2000/svg"><path d="M.6 13.333a5.233 5.233 0 1110.467 0v.234H.6v-.234zM8.4 3.6c0 1.707-1.257 3-2.7 3-1.444 0-2.7-1.293-2.7-3s1.256-3 2.7-3c1.443 0 2.7 1.293 2.7 3z" stroke="#728DB8" stroke-width="1.2"/><circle cx="11.25" cy="11.25" r="3.15" fill="#fff" stroke="#728DB8" stroke-width="1.2"/><path d="M9.375 11.25h3.75M11.25 13.125v-3.75" stroke="#728DB8" stroke-width="1.2"/></svg><svg fill="none" viewBox="0 0 25 25" id="safety" xmlns="http://www.w3.org/2000/svg"><path d="M23.535 19.092H1.465a1.465 1.465 0 100 2.93h22.07a1.465 1.465 0 000-2.93zM19.094 6.656V9.57a.732.732 0 11-1.465 0V5.716a10.92 10.92 0 00-1.465-.634v5.953a.732.732 0 11-1.465 0V3.711a.733.733 0 00-.732-.732h-2.93a.733.733 0 00-.732.732v7.324a.732.732 0 11-1.465 0V5.082c-.505.179-.997.387-1.465.634V9.57a.732.732 0 11-1.465 0V6.656C3.246 8.66 1.516 11.839 1.516 15.43v2.197h21.972V15.43c0-3.591-1.73-6.77-4.394-8.774z" fill="#FF7A00"/></svg><svg fill="none" viewBox="0 0 15 15" id="search" xmlns="http://www.w3.org/2000/svg"><g clip-path="url(#atclip0)" fill-rule="evenodd" clip-rule="evenodd" fill="#728DB8"><path d="M6.618 11.735a5.118 5.118 0 100-10.235 5.118 5.118 0 000 10.235zm0 1.5A6.618 6.618 0 106.618 0a6.618 6.618 0 000 13.235z"/><path d="M10.65 10.47a.75.75 0 011.06 0l2.94 2.939a.75.75 0 01-1.061 1.06l-2.94-2.939a.75.75 0 010-1.06z"/></g><defs><clipPath id="atclip0"><path fill="#fff" d="M0 0h15v15H0z"/></clipPath></defs></svg><svg fill="none" viewBox="0 0 11 7" id="select-arrow" xmlns="http://www.w3.org/2000/svg"><path fill-rule="evenodd" clip-rule="evenodd" d="M0 1.347l.726-.7 4.774 4.6 4.774-4.6.726.7-5.5 5.3-5.5-5.3z" fill="#243238"/></svg><svg fill="none" viewBox="0 0 25 25" id="settings" xmlns="http://www.w3.org/2000/svg"><path d="M3.622 20.783H0v1.465h3.622V25h6.314v-2.752H25v-1.465H9.936v-2.752H3.622v2.752zM11.15 11.767H0v1.465h11.15v2.752h6.314v-2.752H25v-1.465h-7.536V9.015h-6.313v2.752zM3.622 2.752H0v1.465h3.622v2.752h6.314V4.217H25V2.752H9.936V0H3.622v2.752z" fill="#FF7A00"/></svg><svg fill="none" viewBox="0 0 25 25" id="share" xmlns="http://www.w3.org/2000/svg"><g clip-path="url(#awclip0)"><path d="M20.625 15c-1.405 0-2.644.678-3.445 1.71l-8.464-3.254c.009-.111.034-.218.034-.331 0-.21-.033-.412-.062-.614l8.672-4.003c.803.907 1.962 1.492 3.265 1.492A4.38 4.38 0 0025 5.625a4.38 4.38 0 00-4.375-4.375 4.38 4.38 0 00-4.375 4.375c0 .21.033.412.062.614L7.64 10.242C6.837 9.335 5.678 8.75 4.375 8.75A4.38 4.38 0 000 13.125 4.38 4.38 0 004.375 17.5c1.405 0 2.644-.678 3.445-1.711l8.463 3.255c-.008.111-.033.218-.033.33a4.38 4.38 0 004.375 4.376A4.38 4.38 0 0025 19.375 4.38 4.38 0 0020.625 15z" fill="#FF7A00"/></g><defs><clipPath id="awclip0"><path fill="#fff" d="M0 0h25v25H0z"/></clipPath></defs></svg><svg fill="none" viewBox="0 0 25 25" id="table" xmlns="http://www.w3.org/2000/svg"><path d="M9.043 25v-4.641h6.918V25h5.214V0H3.828v25h5.215zM15.96 2.297h2.918v2.918h-2.918V2.297zm0 4.242h2.918v2.918h-2.918V6.54zm0 4.242h2.918v2.917h-2.918v-2.917zm0 4.241h2.918v2.92h-2.918v-2.92zM11.043 2.297h2.919v2.918h-2.919V2.297zm0 4.242h2.919v2.918h-2.919V6.54zm0 4.242h2.919v2.917h-2.919v-2.917zm0 4.241h2.919v2.92h-2.919v-2.92zM6.126 2.297h2.917v2.918H6.127V2.297zm0 4.242h2.917v2.918H6.127V6.54zm0 4.242h2.917v2.917H6.127v-2.917zm0 4.241h2.917v2.92H6.127v-2.92z" fill="#FF7A00"/></svg><svg fill="none" viewBox="0 0 7 28" id="table-menu" xmlns="http://www.w3.org/2000/svg"><path d="M4.69 0H2.31C1.322 0 .522.8.522 1.786v2.38c0 .987.8 1.786 1.786 1.786H4.69c.986 0 1.786-.8 1.786-1.785V1.786C6.476.8 5.676 0 4.69 0zM4.69 10.952H2.31c-.987 0-1.787.8-1.787 1.786v2.38c0 .987.8 1.786 1.786 1.786H4.69c.986 0 1.786-.799 1.786-1.785v-2.381c0-.986-.8-1.786-1.786-1.786zM4.69 21.904H2.31c-.987 0-1.787.8-1.787 1.786v2.381c0 .986.8 1.786 1.786 1.786H4.69c.986 0 1.786-.8 1.786-1.786V23.69c0-.986-.8-1.786-1.786-1.786z" fill="#fff"/></svg><svg fill="none" viewBox="0 0 25 25" id="telegram" xmlns="http://www.w3.org/2000/svg"><g clip-path="url(#azclip0)"><path d="M9.81 15.814l-.414 5.816c.592 0 .848-.254 1.155-.56l2.774-2.65 5.748 4.21c1.054.587 1.797.277 2.081-.97l3.773-17.68h.001c.335-1.56-.563-2.168-1.59-1.786L1.16 10.684c-1.514.588-1.491 1.432-.258 1.814l5.67 1.764 13.17-8.241c.62-.41 1.183-.183.72.227L9.81 15.814z" fill="#728DB8"/></g><defs><clipPath id="azclip0"><path fill="#fff" d="M0 0h25v25H0z"/></clipPath></defs></svg><svg fill="none" viewBox="0 0 27 27" id="title-icon-blue" xmlns="http://www.w3.org/2000/svg"><path d="M15 0h12v12H15V0zM15 15h12v12H15V15zM0 15h12v12H0V15z" fill="#FF7A00"/></svg><svg fill="none" viewBox="0 0 25 25" id="viber" xmlns="http://www.w3.org/2000/svg"><path d="M22.39 6.578c-.39-1.393-1.162-2.495-2.295-3.275-1.43-.986-3.075-1.335-4.495-1.547-1.965-.293-3.745-.334-5.44-.127-1.591.195-2.788.506-3.88 1.008-2.141.984-3.426 2.575-3.82 4.73a29.75 29.75 0 00-.393 2.894c-.171 2.087-.016 3.932.476 5.643.48 1.668 1.318 2.86 2.562 3.642.317.2.723.344 1.115.483.223.079.44.155.618.238.164.076.164.09.162.227-.014 1.186 0 3.51 0 3.51l.003.496h.892l.145-.14c.094-.09 2.303-2.223 3.089-3.082l.107-.12c.135-.155.135-.155.275-.158a94.255 94.255 0 003.226-.12c1.307-.072 2.82-.198 4.246-.793 1.305-.545 2.257-1.41 2.83-2.57.597-1.21.951-2.521 1.084-4.008.233-2.613.068-4.88-.507-6.931zM17.691 16.74c-.327.534-.816.904-1.393 1.145-.42.176-.85.139-1.266-.037-3.484-1.474-6.215-3.797-8.02-7.137-.373-.688-.632-1.437-.928-2.164-.061-.15-.057-.325-.084-.488.026-1.175.927-1.835 1.837-2.036.348-.077.655.046.914.293a8.038 8.038 0 011.704 2.358c.186.388.102.733-.215 1.022a2.78 2.78 0 01-.206.169c-.723.544-.83.955-.444 1.774.657 1.393 1.745 2.328 3.154 2.908.372.152.721.077 1.005-.224.038-.04.08-.079.109-.126.555-.926 1.36-.834 2.104-.305.489.347.964.713 1.447 1.067.736.54.73 1.049.282 1.78zm-4.62-9.24c-.163 0-.327.014-.489.04a.5.5 0 11-.164-.986 3.933 3.933 0 014.529 4.529.5.5 0 01-.987-.166A2.932 2.932 0 0013.072 7.5zm2.43 3a.5.5 0 01-1 0c0-.827-.674-1.5-1.5-1.5a.5.5 0 010-1c1.378 0 2.5 1.122 2.5 2.5zm2.854 1.11a.5.5 0 11-.975-.22 4.414 4.414 0 00-5.28-5.28.5.5 0 11-.222-.976 5.415 5.415 0 016.477 6.476z" fill="#728DB8"/></svg><svg fill="none" viewBox="0 0 25 25" id="whatsapp" xmlns="http://www.w3.org/2000/svg"><path d="M19.87 5.133a10.34 10.34 0 00-7.36-3.05c-5.735 0-10.403 4.666-10.405 10.401a10.377 10.377 0 001.388 5.2l-1.411 5.233 5.451-1.289c1.52.83 3.23 1.266 4.972 1.267h.004c5.735 0 10.402-4.667 10.405-10.401a10.335 10.335 0 00-3.043-7.36zM17.6 16.202c-.216.607-1.277 1.193-1.754 1.235-.478.044-.924.216-3.12-.65-2.643-1.041-4.312-3.75-4.44-3.923-.131-.175-1.062-1.41-1.062-2.69 0-1.278.672-1.907.91-2.167a.954.954 0 01.694-.325c.173 0 .347 0 .498.006.185.008.39.017.585.45.231.514.737 1.8.801 1.93.065.13.109.282.022.455-.086.173-.13.281-.26.433-.13.152-.272.339-.389.455-.13.13-.265.271-.114.53.152.261.672 1.112 1.445 1.8.994.886 1.83 1.16 2.091 1.291.26.13.412.108.564-.065.152-.173.65-.759.822-1.02.173-.26.347-.216.586-.13.238.087 1.517.716 1.776.847.26.13.433.194.498.303.064.107.064.628-.152 1.235z" fill="#728DB8"/></svg></svg>