<?xml version="1.0" encoding="utf-8"?><svg viewBox="0 0 160 130" xmlns="http://www.w3.org/2000/svg" xmlns:xlink="http://www.w3.org/1999/xlink"><style>:root>svg{display:none}:root>svg:target{display:block}</style><svg fill="none" viewBox="0 0 35 35" id="burger" xmlns="http://www.w3.org/2000/svg"><g clip-path="url(#aaclip0)" fill="#FF7A00"><path d="M12.713 0H2.665A2.668 2.668 0 000 2.665v10.048a2.668 2.668 0 002.665 2.665h10.048a2.668 2.668 0 002.665-2.665V2.665A2.668 2.668 0 0012.713 0zM32.334 0H22.286a2.668 2.668 0 00-2.665 2.665v10.048a2.668 2.668 0 002.665 2.665h10.048A2.668 2.668 0 0035 12.713V2.665A2.668 2.668 0 0032.334 0zM12.713 19.622H2.665A2.668 2.668 0 000 22.287v10.048A2.668 2.668 0 002.665 35h10.048a2.668 2.668 0 002.665-2.665V22.286a2.668 2.668 0 00-2.665-2.664zM32.334 19.622H22.286a2.668 2.668 0 00-2.665 2.665v10.048A2.668 2.668 0 0022.286 35h10.048A2.668 2.668 0 0035 32.335V22.286a2.668 2.668 0 00-2.665-2.664z"/></g><defs><clipPath id="aaclip0"><path fill="#fff" d="M0 0h35v35H0z"/></clipPath></defs></svg><svg fill="none" viewBox="0 0 25 25" id="calendar" xmlns="http://www.w3.org/2000/svg"><path d="M6.248 0c-.493 0-.893.4-.893.893v1.786h1.786V.893C7.141.4 6.741 0 6.248 0zM18.748 0c-.493 0-.893.4-.893.893v1.786h1.786V.893c0-.493-.4-.893-.893-.893z" fill="#FF7A00"/><path d="M22.321 2.678h-2.678V6.25a.893.893 0 01-1.786 0V2.678H7.143V6.25a.893.893 0 11-1.786 0V2.678H2.68C1.199 2.678 0 3.878 0 5.357v16.964C0 23.801 1.2 25 2.679 25H22.32C23.801 25 25 23.8 25 22.32V5.357c0-1.48-1.2-2.679-2.679-2.679zm.893 19.643c0 .493-.4.893-.893.893H2.68a.893.893 0 01-.893-.893V10.714h21.428v11.607z" fill="#FF7A00"/><path d="M7.143 12.5H5.358a.893.893 0 100 1.786h1.785a.893.893 0 000-1.786zM13.393 12.5h-1.785a.893.893 0 100 1.786h1.785a.893.893 0 000-1.786zM19.643 12.5h-1.785a.893.893 0 100 1.786h1.785a.893.893 0 000-1.786zM7.143 16.072H5.358a.893.893 0 000 1.785h1.785a.893.893 0 000-1.785zM13.393 16.072h-1.785a.893.893 0 000 1.785h1.785a.893.893 0 000-1.785zM19.643 16.072h-1.785a.893.893 0 000 1.785h1.785a.893.893 0 000-1.785zM7.143 19.643H5.358a.893.893 0 000 1.785h1.785a.893.893 0 100-1.785zM13.393 19.643h-1.785a.893.893 0 000 1.786h1.785a.893.893 0 000-1.786zM19.643 19.643h-1.785a.893.893 0 000 1.786h1.785a.893.893 0 000-1.786z" fill="#FF7A00"/></svg><svg fill="none" viewBox="0 0 10 8" id="checkbox" xmlns="http://www.w3.org/2000/svg"><path fill-rule="evenodd" clip-rule="evenodd" d="M9.327.621a.5.5 0 01.052.706l-5.177 6a.5.5 0 01-.757 0L.621 4.054A.5.5 0 011.38 3.4l2.445 2.834L8.62.673a.5.5 0 01.706-.052z" fill="#fff"/></svg><svg fill="none" viewBox="0 0 17 17" id="close-modal" xmlns="http://www.w3.org/2000/svg"><path fill-rule="evenodd" clip-rule="evenodd" d="M15.293 16.707l-15-15L1.707.293l15 15-1.414 1.414z" fill="#728DB8"/><path fill-rule="evenodd" clip-rule="evenodd" d="M16.707 1.707l-15 15-1.414-1.414 15-15 1.414 1.414z" fill="#728DB8"/></svg><svg fill="none" viewBox="0 0 21 13" id="collapse" xmlns="http://www.w3.org/2000/svg"><path fill-rule="evenodd" clip-rule="evenodd" d="M1.05 1.228a1.5 1.5 0 012.121.022L10.35 8.58l7.5-7.35a1.5 1.5 0 012.1 2.142l-8.572 8.4a1.5 1.5 0 01-2.121-.021l-8.229-8.4a1.5 1.5 0 01.022-2.122z" fill="#FF7A00"/></svg><svg fill="none" viewBox="0 0 20 20" id="dead-line-icon" xmlns="http://www.w3.org/2000/svg"><path d="M5 0a.714.714 0 00-.714.714v1.429h1.429V.714A.714.714 0 005 0zM15 0a.714.714 0 00-.714.714v1.429h1.429V.714A.714.714 0 0015 0zM17.857 2.143h-2.143V5a.714.714 0 11-1.428 0V2.143H5.714V5a.714.714 0 11-1.428 0V2.143H2.143C.959 2.143 0 3.103 0 4.286v13.571C0 19.041.96 20 2.143 20h15.714C19.041 20 20 19.04 20 17.857V4.286c0-1.184-.96-2.143-2.143-2.143zm.714 15.714c0 .395-.32.714-.714.714H2.143a.714.714 0 01-.714-.714V8.571H18.57v9.286z" fill="#A1AFC5"/><path d="M5.714 10H4.286a.714.714 0 100 1.429h1.428a.714.714 0 100-1.429zM10.714 10H9.286a.714.714 0 100 1.429h1.428a.714.714 0 100-1.429zM15.714 10h-1.428a.714.714 0 100 1.429h1.428a.714.714 0 100-1.429zM5.714 12.857H4.286a.714.714 0 100 1.429h1.428a.714.714 0 100-1.429zM10.714 12.857H9.286a.714.714 0 100 1.429h1.428a.714.714 0 100-1.429zM15.714 12.857h-1.428a.714.714 0 100 1.429h1.428a.714.714 0 100-1.429zM5.714 15.714H4.286a.714.714 0 100 1.429h1.428a.714.714 0 100-1.429zM10.714 15.714H9.286a.714.714 0 100 1.429h1.428a.714.714 0 100-1.429zM15.714 15.714h-1.428a.714.714 0 100 1.429h1.428a.714.714 0 100-1.429z" fill="#A1AFC5"/></svg><svg fill="none" viewBox="0 0 15 15" id="edit" xmlns="http://www.w3.org/2000/svg"><g clip-path="url(#agclip0)" fill="#FF7A00"><path d="M11.875 7.529a.625.625 0 00-.625.625v5c0 .344-.28.625-.625.625h-8.75a.626.626 0 01-.625-.625v-8.75c0-.345.28-.625.625-.625h5a.625.625 0 100-1.25h-5A1.877 1.877 0 000 4.404v8.75c0 1.034.841 1.875 1.875 1.875h8.75a1.877 1.877 0 001.875-1.875v-5a.624.624 0 00-.625-.625z"/><path d="M5.86 6.96a.316.316 0 00-.086.159l-.442 2.21a.314.314 0 00.368.367l2.21-.441a.311.311 0 00.16-.086l4.945-4.945-2.21-2.21L5.86 6.96zM14.543.486c-.61-.61-1.6-.61-2.21 0l-.864.865 2.21 2.21.864-.865a1.55 1.55 0 00.458-1.105c0-.417-.163-.81-.458-1.105z"/></g><defs><clipPath id="agclip0"><path fill="#fff" d="M0 0h15v15H0z"/></clipPath></defs></svg><svg fill="none" viewBox="0 0 15 15" id="edit-photo" xmlns="http://www.w3.org/2000/svg"><path d="M3.906 11.582c-1 0-1.89-.64-2.214-1.595l-.022-.072a2.281 2.281 0 01-.108-.677V4.977L.046 10.038a1.42 1.42 0 00.995 1.722l9.665 2.588c.12.031.24.046.36.046.622 0 1.19-.413 1.35-1.022l.563-1.79H3.906zM5.623 5.02a1.251 1.251 0 000-2.501c-.69 0-1.25.56-1.25 1.25s.56 1.25 1.25 1.25z" fill="#FF7A00"/><path d="M13.438.645H4.062c-.86 0-1.562.7-1.562 1.562v6.875c0 .862.701 1.563 1.563 1.563h9.375c.861 0 1.562-.701 1.562-1.563V2.207C15 1.346 14.3.645 13.438.645zm-9.376 1.25h9.376c.172 0 .312.14.312.312v4.437L11.776 4.34a1.12 1.12 0 00-.838-.384 1.092 1.092 0 00-.835.394L7.78 7.137l-.756-.755a1.097 1.097 0 00-1.55 0L3.75 8.107v-5.9c0-.172.14-.312.313-.312z" fill="#FF7A00"/></svg><svg fill="none" viewBox="0 0 15 15" id="filter-icon" xmlns="http://www.w3.org/2000/svg"><path fill-rule="evenodd" clip-rule="evenodd" d="M.387 1.442a.5.5 0 01.447-.275h13.333a.5.5 0 01.393.81L9.57 8.292v4.262a.5.5 0 01-.272.444L6.16 14.611a.5.5 0 01-.729-.444v-5.48l-5-6.722a.5.5 0 01-.045-.523zm1.442.725l4.504 6.056a.5.5 0 01.099.298v4.826l2.137-1.098v-4.13a.5.5 0 01.108-.31l4.458-5.642H1.829z" fill="#728DB8"/></svg><svg fill="none" viewBox="0 0 25 25" id="floor-icon" xmlns="http://www.w3.org/2000/svg"><path fill="#FF7A00" d="M2 0h20.703v25H2z"/><path fill="#fff" d="M6.688 4.688h3.906v3.906H6.688zM6.688 10.547h3.906v3.906H6.688zM6.688 16.406h3.906v3.906H6.688zM14.109 4.688h3.906v3.906h-3.906zM14.109 10.547h3.906v3.906h-3.906zM14.109 16.406h3.906v3.906h-3.906z"/></svg><svg fill="none" viewBox="0 0 20 20" id="free-icon" xmlns="http://www.w3.org/2000/svg"><path d="M19.09 0h-3.03a.91.91 0 000 1.818h2.122v7.273h-2.727a.91.91 0 000 1.818h2.727v7.273H9.274v-2.727a.91.91 0 10-1.818 0v2.727H1.818v-7.273h5.638v.91a.91.91 0 001.818 0v-.91h1.938a.909.909 0 100-1.818H9.274v-.91a.91.91 0 10-1.818 0v.91H1.818V1.818h5.638v2.727a.91.91 0 001.818 0V1.818h2.544a.91.91 0 100-1.818H.91A.91.91 0 000 .91v18.18c0 .503.407.91.91.91H19.09a.91.91 0 00.909-.91V.91a.91.91 0 00-.91-.91z" fill="#A1AFC5"/></svg><svg fill="none" viewBox="0 0 25 25" id="info-icon" xmlns="http://www.w3.org/2000/svg"><path d="M17.694 22.302l-.35 1.428a67.78 67.78 0 01-2.508.945c-.624.217-1.349.325-2.175.325-1.269 0-2.255-.31-2.96-.928-.703-.62-1.055-1.405-1.055-2.358 0-.369.026-.748.079-1.134.053-.387.138-.823.255-1.31l1.31-4.636c.116-.444.215-.864.294-1.262.08-.395.12-.759.12-1.086 0-.592-.123-1.006-.367-1.239-.244-.232-.71-.35-1.4-.35a3.67 3.67 0 00-1.042.16c-.356.104-.66.206-.916.3l.35-1.428c.858-.35 1.678-.649 2.462-.897.785-.249 1.526-.373 2.227-.373 1.26 0 2.232.304 2.915.913.682.61 1.024 1.4 1.024 2.373 0 .202-.023.556-.071 1.064a7.112 7.112 0 01-.262 1.398l-1.304 4.616c-.107.371-.203.795-.287 1.272-.086.474-.127.836-.127 1.079 0 .613.136 1.032.41 1.254.276.223.752.333 1.427.333.317 0 .678-.056 1.079-.166.4-.111.69-.208.872-.293zm.33-19.382c0 .804-.303 1.49-.912 2.056-.607.567-1.34.85-2.196.85-.86 0-1.594-.283-2.208-.85-.614-.565-.921-1.252-.921-2.056 0-.803.307-1.491.92-2.063C13.322.285 14.058 0 14.917 0c.856 0 1.588.286 2.196.857.61.572.913 1.26.913 2.063z" fill="#FF7A00"/></svg><svg fill="none" viewBox="0 0 25 25" id="instagram" xmlns="http://www.w3.org/2000/svg"><path d="M18.233 0H6.767A6.775 6.775 0 000 6.767v11.466A6.775 6.775 0 006.767 25h11.466A6.775 6.775 0 0025 18.233V6.767A6.775 6.775 0 0018.233 0zM12.5 19.336A6.843 6.843 0 015.664 12.5 6.843 6.843 0 0112.5 5.664a6.843 6.843 0 016.836 6.836 6.843 6.843 0 01-6.836 6.836zm7-12.06a2.022 2.022 0 01-2.02-2.02c0-1.113.905-2.02 2.02-2.02 1.113 0 2.02.907 2.02 2.02 0 1.114-.907 2.02-2.02 2.02z" fill="#728DB8"/><path d="M12.499 7.13a5.376 5.376 0 00-5.37 5.37c0 2.961 2.41 5.37 5.37 5.37 2.961 0 5.37-2.409 5.37-5.37a5.376 5.376 0 00-5.37-5.37zM19.5 4.702a.555.555 0 10.001 1.11.555.555 0 00-.001-1.11z" fill="#728DB8"/></svg><svg fill="none" viewBox="0 0 25 25" id="link-icon" xmlns="http://www.w3.org/2000/svg"><g clip-path="url(#anclip0)" fill="#FF7A00"><path d="M23.284 1.716a5.86 5.86 0 00-8.287 0L10.1 6.613c-2.367 2.367-2.148 6.139 0 8.287.36.36.758.653 1.178.894l.894-.894c.586-.587.38-1.272.37-1.767a2.832 2.832 0 01-.37-.305c-1.102-1.102-1.152-2.991 0-4.143l4.897-4.897a2.933 2.933 0 014.143 0 2.933 2.933 0 010 4.143l-3.237 3.237c.094.518.656 1.745.367 3.769.014-.014.03-.023.045-.037l4.897-4.897a5.86 5.86 0 000-8.287z"/><path d="M15.28 9.72a5.575 5.575 0 00-1.179-.893l-.893.894c-.587.586-.38 1.272-.37 1.766.129.091.254.19.37.306 1.102 1.102 1.151 2.99 0 4.143L7.93 21.212a2.933 2.933 0 01-4.143 0 2.933 2.933 0 010-4.143l3.616-3.616c-.093-.518-.655-1.745-.366-3.769-.014.014-.031.023-.045.037l-5.277 5.277a5.86 5.86 0 008.286 8.286l5.277-5.277c2.323-2.323 2.196-6.09 0-8.286z"/></g><defs><clipPath id="anclip0"><path fill="#fff" d="M0 0h25v25H0z"/></clipPath></defs></svg><svg fill="none" viewBox="0 0 25 25" id="locate" xmlns="http://www.w3.org/2000/svg"><path d="M12.5 0C7.506 0 3.444 4.062 3.444 9.054c0 6.196 8.103 15.291 8.448 15.676.324.36.89.36 1.213 0 .345-.385 8.447-9.48 8.447-15.676C21.553 4.062 17.492 0 12.5 0zm0 13.61a4.56 4.56 0 01-4.556-4.556A4.56 4.56 0 0112.5 4.499a4.56 4.56 0 014.556 4.555 4.56 4.56 0 01-4.556 4.555z" fill="#FF7A00"/></svg><svg fill="none" viewBox="0 0 18 18" id="login" xmlns="http://www.w3.org/2000/svg"><g clip-path="url(#apclip0)" fill="#728DB8"><path d="M3.375 18v-3.375h2.25v1.125h9V2.25h-9v1.125h-2.25V0h13.5v18h-13.5z"/><path d="M5.489 6.42l1.59-1.59L11.25 9l-4.17 4.17-1.591-1.59 1.454-1.455H1.125v-2.25h5.818L5.49 6.42z"/></g><defs><clipPath id="apclip0"><path fill="#fff" transform="matrix(1 0 0 -1 0 18)" d="M0 0h18v18H0z"/></clipPath></defs></svg><svg fill="none" viewBox="0 0 15 15" id="logout" xmlns="http://www.w3.org/2000/svg"><g clip-path="url(#aqclip0)" fill="#728DB8"><path d="M2.5 1.5h7.938V3h1.5V0H1v15h10.938v-2.75h-1.5v1.25H2.5v-12z"/><path fill-rule="evenodd" clip-rule="evenodd" d="M14.25 7.606a.75.75 0 01-.258.553l-2.77 2.407a.75.75 0 01-.984-1.132l1.256-1.091h-6.49a.75.75 0 110-1.5H11.6l-1.383-1.295a.75.75 0 111.025-1.096l2.77 2.593a.75.75 0 01.237.561z"/></g><defs><clipPath id="aqclip0"><path fill="#fff" d="M0 0h15v15H0z"/></clipPath></defs></svg><svg fill="none" viewBox="0 0 15 15" id="logout-white" xmlns="http://www.w3.org/2000/svg"><g clip-path="url(#arclip0)" fill="#fff"><path d="M2.5 1.5h7.938V3h1.5V0H1v15h10.938v-2.75h-1.5v1.25H2.5v-12z"/><path fill-rule="evenodd" clip-rule="evenodd" d="M14.25 7.606a.75.75 0 01-.258.553l-2.77 2.407a.75.75 0 01-.984-1.132l1.256-1.091h-6.49a.75.75 0 110-1.5H11.6l-1.383-1.295a.75.75 0 111.025-1.096l2.77 2.593a.75.75 0 01.237.561z"/></g><defs><clipPath id="arclip0"><path fill="#fff" d="M0 0h15v15H0z"/></clipPath></defs></svg><svg fill="none" viewBox="0 0 25 25" id="messenger" xmlns="http://www.w3.org/2000/svg"><path d="M12.5 1C6.15 1 1 5.8 1 11.75c0 3.15 1.45 6.1 4 8.15v4.4l4.3-2.25c1.05.3 2.1.4 3.2.4 6.35 0 11.5-4.8 11.5-10.75C24 5.8 18.85 1 12.5 1zm1.15 14.3l-2.9-3.1-5.4 3.05 6-6.35 2.95 2.95 5.25-2.95-5.9 6.4z" fill="#728DB8"/></svg><svg fill="none" viewBox="0 0 16 28" id="next-slider" xmlns="http://www.w3.org/2000/svg"><path fill-rule="evenodd" clip-rule="evenodd" d="M.928 27.05a1.5 1.5 0 01.022-2.122L11.88 14.223.929 3.05A1.5 1.5 0 113.07.95l12 12.245a1.5 1.5 0 01-.021 2.121l-12 11.755a1.5 1.5 0 01-2.122-.021z" fill="#FF7A00"/></svg><svg fill="none" viewBox="0 0 7 19" id="next-slider-course" xmlns="http://www.w3.org/2000/svg"><path fill-rule="evenodd" clip-rule="evenodd" d="M.485 18.857a1 1 0 01-.342-1.372L4.84 9.663.134 1.499A1 1 0 011.866.5l5 8.674a1 1 0 01-.009 1.014l-5 8.327a1 1 0 01-1.372.342z" fill="#FF7A00"/></svg><svg fill="none" viewBox="0 0 7 18" id="next-slider-search" xmlns="http://www.w3.org/2000/svg"><path fill-rule="evenodd" clip-rule="evenodd" d="M.485 17.865c-.473-.27-.626-.852-.342-1.3l4.697-7.41L.134 1.42C-.142.967.022.388.5.127.979-.135 1.59.02 1.866.474l5 8.217a.905.905 0 01-.009.961l-5 7.888c-.284.449-.898.594-1.372.325z" fill="#FF7A00"/></svg><svg fill="none" viewBox="0 0 10 14" id="pagination-next" xmlns="http://www.w3.org/2000/svg"><path d="M10 7L0 14V0l10 7z" fill="#FF7A00"/></svg><svg fill="none" viewBox="0 0 10 14" id="pagination-prev" xmlns="http://www.w3.org/2000/svg"><path d="M0 7l10-7v14L0 7z" fill="#FF7A00"/></svg><svg fill="none" viewBox="0 0 25 25" id="phone-icon" xmlns="http://www.w3.org/2000/svg"><g clip-path="url(#ayclip0)"><path d="M24.32 18.348l-3.488-3.49c-1.246-1.245-3.364-.747-3.863.873-.374 1.121-1.62 1.744-2.741 1.495-2.492-.623-5.856-3.863-6.48-6.48-.373-1.12.375-2.367 1.496-2.74 1.62-.499 2.118-2.617.872-3.863L6.627.654c-.996-.872-2.492-.872-3.364 0L.896 3.022C-1.472 5.514 1.145 12.117 7 17.974c5.856 5.856 12.46 8.597 14.952 6.105l2.368-2.367c.872-.997.872-2.492 0-3.364z" fill="#FF7A00"/></g><defs><clipPath id="ayclip0"><path fill="#fff" d="M0 0h25v25H0z"/></clipPath></defs></svg><svg fill="none" viewBox="0 0 160 130" id="plan" xmlns="http://www.w3.org/2000/svg"><path d="M120 21.517H84.324A60.16 60.16 0 0182.57 26h18.521l3.889 15.54c-1.76 1.06-15.12 11.778-23.697 11.7V28.798c-.616 1.462-2.082 4.026-2.562 4.872v19.574c-8.578.077-21.938-10.642-23.698-11.7l2.912-11.638a82.155 82.155 0 01-1.545-3.254l-3.426 13.69c-4.407-2.485-8.915-4.35-13.543-4.445l4.75-9.892h11.933a60.334 60.334 0 01-1.762-4.483H40L0 104l44.8-19.036L80 100.826l35.2-15.863L160 104l-40-82.483zm-81.868 17.06c4.197.016 9.687 1.947 14.144 4.497L48.372 58.68c-.94-.167-3.66-.385-4.038-.385-6.359.025-13.024 2.756-18.78 6.464l12.578-26.183zm4.912 40.74L12.8 91.31 23.15 69.76c6.187-4.793 14.17-8.745 21.184-8.711.343-.002 2.601.15 3.385.267l-4.675 18.001zm35.674 14.591l-33.11-14.922 4.355-17.205c10.035 2.597 17.74 11.387 28.755 13.983v18.144zm0-20.934c-9.74-2.347-17.369-11.01-28.1-13.816l3.723-14.872c1.524.93 3.06 1.911 4.594 2.908 6.583 4.232 12.466 8.823 19.783 8.901v16.879zm55.73-8.214c-5.756-3.708-12.421-6.441-18.78-6.464-.379 0-3.099.218-4.038.385l-3.904-15.607c4.459-2.55 9.949-4.483 14.146-4.497l12.576 26.183zM103.449 26h12.379l4.753 9.893c-4.629.096-9.139 1.961-13.545 4.445L103.449 26zM81.282 56.095c7.317-.078 13.198-4.669 19.786-8.9 1.531-.998 3.069-1.98 4.592-2.909l3.721 14.872c-10.729 2.806-18.359 11.469-28.1 13.816V56.095zm0 37.813V75.764c11.015-2.596 18.722-11.386 28.755-13.983l4.354 17.205-33.11 14.922zm30.999-32.593c.784-.116 3.042-.269 3.385-.267 7.01-.034 14.995 3.92 21.184 8.71L147.2 91.31l-30.244-11.992-4.675-18.003zM69.333 39.448c2.868 0 10.86-14.622 12.62-22.483a12.44 12.44 0 00.712-4.128C82.667 5.75 76.7 0 69.333 0 61.97 0 56 5.75 56 12.839c0 1.445.258 2.83.713 4.127 1.765 7.86 9.753 22.482 12.62 22.482zm0-31.827c2.95 0 5.334 2.404 5.334 5.379 0 2.971-2.386 5.38-5.334 5.38C66.39 18.38 64 15.97 64 13c0-2.975 2.39-5.38 5.333-5.38z" fill="#728DB8"/></svg><svg fill="none" viewBox="0 0 16 28" id="prev-slider" xmlns="http://www.w3.org/2000/svg"><path fill-rule="evenodd" clip-rule="evenodd" d="M15.072.95a1.5 1.5 0 01-.022 2.122L4.12 13.777l10.95 11.173a1.5 1.5 0 11-2.142 2.1l-12-12.245a1.5 1.5 0 01.021-2.121l12-11.756a1.5 1.5 0 012.122.022z" fill="#FF7A00"/></svg><svg fill="none" viewBox="0 0 7 19" id="prev-slider-course" xmlns="http://www.w3.org/2000/svg"><path fill-rule="evenodd" clip-rule="evenodd" d="M6.515.143a1 1 0 01.342 1.372L2.16 9.337l4.706 8.164a1 1 0 01-1.732.999l-5-8.674a1 1 0 01.009-1.014l5-8.327A1 1 0 016.515.143z" fill="#FF7A00"/></svg><svg fill="none" viewBox="0 0 7 18" id="prev-slider-search" xmlns="http://www.w3.org/2000/svg"><path fill-rule="evenodd" clip-rule="evenodd" d="M6.515.135c.473.27.626.852.342 1.3L2.16 8.845l4.706 7.734c.276.454.112 1.033-.367 1.294-.478.261-1.09.106-1.365-.347l-5-8.217a.905.905 0 01.009-.961l5-7.888C5.427.01 6.04-.134 6.515.135z" fill="#FF7A00"/></svg><svg fill="none" viewBox="0 0 25 25" id="price-icon" xmlns="http://www.w3.org/2000/svg"><g clip-path="url(#bdclip0)"><path d="M24.66 12.688L13.2 2.27a1.042 1.042 0 00-1.4 0L.34 12.688a1.042 1.042 0 00.7 1.812h2.084v8.334a1.042 1.042 0 001.042 1.041h16.666a1.042 1.042 0 001.042-1.041V14.5h2.084a1.04 1.04 0 00.7-1.812zm-9.035-1.313H12.5a1.042 1.042 0 000 2.084 3.125 3.125 0 011.042 6.07v1.221h-2.083V19.71H9.375v-2.084H12.5a1.041 1.041 0 100-2.083A3.125 3.125 0 0111.46 9.47v-1.22h2.083v1.04h2.083v2.084z" fill="#FF7A00"/></g><defs><clipPath id="bdclip0"><path fill="#fff" d="M0 0h25v25H0z"/></clipPath></defs></svg><svg fill="none" viewBox="0 0 20 20" id="price-icon-2" xmlns="http://www.w3.org/2000/svg"><path stroke="#A1AFC5" stroke-width="2" d="M1 1h18v18H1z"/><path fill="#fff" d="M9 0h2v3H9zM9 17h2v3H9zM17 9h3v2h-3zM0 9h3v2H0z"/><g clip-path="url(#beclip0)"><path d="M12.632 11.132a2.1 2.1 0 00-.183-.444 1.503 1.503 0 00-.307-.369 3.678 3.678 0 00-.36-.29 3.502 3.502 0 00-.438-.247 7.837 7.837 0 00-.911-.386c-.182-.07-.318-.122-.407-.16a8.949 8.949 0 01-.35-.156 2.046 2.046 0 01-.326-.18 2.554 2.554 0 01-.229-.191.653.653 0 01-.22-.52c0-.263.115-.477.348-.644.232-.166.532-.25.9-.25.162 0 .327.023.496.067a2.597 2.597 0 01.771.337c.107.068.182.119.227.154.044.035.072.058.084.07.05.038.102.052.157.04.058-.004.102-.035.133-.093l.47-.847c.047-.077.037-.151-.029-.22a1.93 1.93 0 00-.087-.082 3.007 3.007 0 00-.226-.168 2.8 2.8 0 00-.369-.218 3.73 3.73 0 00-1.146-.328V4.986a.181.181 0 00-.052-.134.18.18 0 00-.134-.052h-.783a.178.178 0 00-.13.055.178.178 0 00-.056.13V6.03c-.607.116-1.1.376-1.48.778-.38.402-.569.87-.569 1.405 0 .158.017.31.05.452.033.143.073.272.122.386.048.114.117.227.206.337.089.11.173.205.252.284.08.08.183.162.31.247.128.085.238.154.328.206.091.052.212.112.363.18.151.067.27.119.357.154.087.034.206.083.357.145.209.08.364.144.464.188.101.045.229.107.384.186.154.08.267.152.34.217.07.066.135.147.194.244.058.097.087.2.087.308a.812.812 0 01-.357.708c-.238.166-.514.25-.827.25a2.03 2.03 0 01-.43-.047c-.503-.1-.973-.342-1.41-.726l-.012-.011a.144.144 0 00-.139-.052c-.062.008-.106.03-.133.07l-.598.783c-.058.077-.054.157.011.238.02.023.054.058.102.104.048.047.138.12.27.218.131.099.275.192.43.279.154.087.35.173.588.258.238.085.485.145.74.18v1.015c0 .05.019.094.056.131.036.037.08.055.13.055h.784a.18.18 0 00.133-.052.18.18 0 00.052-.134V14c.616-.1 1.116-.365 1.5-.793.386-.427.578-.937.578-1.529 0-.193-.025-.375-.076-.545z" fill="#A1AFC5"/></g><defs><clipPath id="beclip0"><path fill="#fff" transform="translate(4.8 4.8)" d="M0 0h10.4v10.4H0z"/></clipPath></defs></svg><svg fill="none" viewBox="0 0 25 25" id="price2-icon" xmlns="http://www.w3.org/2000/svg"><path stroke="#FF7A00" stroke-width="3" d="M1.5 1.5h22v22h-22z"/><path fill="#fff" d="M11 0h3v3h-3zM11 22h3v3h-3zM22 11h3v3h-3zM0 11h3v3H0z"/><g clip-path="url(#bfclip0)"><path d="M15.791 13.915a2.623 2.623 0 00-.228-.555 1.876 1.876 0 00-.385-.461 4.609 4.609 0 00-.45-.363 4.399 4.399 0 00-.547-.308 9.784 9.784 0 00-1.14-.482 11.06 11.06 0 01-.947-.395 2.55 2.55 0 01-.405-.226 3.193 3.193 0 01-.287-.239.818.818 0 01-.275-.65c0-.328.145-.597.435-.805.29-.207.665-.311 1.124-.311.203 0 .41.027.62.083a3.243 3.243 0 01.965.42c.133.085.228.15.283.193.056.043.091.072.106.087a.231.231 0 00.195.05c.073-.004.129-.043.167-.115l.588-1.06c.058-.096.046-.188-.036-.275a2.463 2.463 0 00-.11-.102 3.766 3.766 0 00-.282-.21 3.505 3.505 0 00-.46-.272 4.658 4.658 0 00-1.434-.41V6.232a.226.226 0 00-.065-.167.226.226 0 00-.167-.065h-.98a.223.223 0 00-.162.069.223.223 0 00-.07.163v1.306c-.759.145-1.375.47-1.85.972-.473.503-.71 1.088-.71 1.756 0 .198.02.387.062.565.04.18.091.34.152.483.06.143.146.283.257.42.112.139.217.257.316.356.1.1.229.202.388.308.16.107.296.193.41.258.114.065.265.14.454.225.188.084.337.148.446.192l.446.181c.261.102.454.18.58.236.126.056.286.133.48.232.193.1.334.19.424.272.089.083.17.184.243.305.072.12.109.249.109.385 0 .382-.15.677-.447.884a1.759 1.759 0 01-1.034.312c-.178 0-.357-.019-.536-.058-.629-.125-1.217-.428-1.763-.906l-.015-.015a.18.18 0 00-.174-.065c-.077.01-.133.039-.167.087l-.747.98c-.072.096-.067.195.015.297.024.029.066.072.127.13.06.059.173.149.337.273.164.123.343.239.537.348.193.109.439.216.736.323.298.106.606.18.925.224v1.27c0 .063.023.117.07.163.045.046.1.07.162.07h.98a.226.226 0 00.167-.066.226.226 0 00.065-.167v-1.27c.769-.125 1.394-.456 1.875-.99a2.76 2.76 0 00.722-1.911c0-.242-.031-.47-.095-.682z" fill="#FF7A00"/></g><defs><clipPath id="bfclip0"><path fill="#fff" transform="translate(6 6)" d="M0 0h13v13H0z"/></clipPath></defs></svg><svg fill="none" viewBox="0 0 15 15" id="registration" xmlns="http://www.w3.org/2000/svg"><path d="M.6 13.333a5.233 5.233 0 1110.467 0v.234H.6v-.234zM8.4 3.6c0 1.707-1.257 3-2.7 3-1.444 0-2.7-1.293-2.7-3s1.256-3 2.7-3c1.443 0 2.7 1.293 2.7 3z" stroke="#728DB8" stroke-width="1.2"/><circle cx="11.25" cy="11.25" r="3.15" fill="#fff" stroke="#728DB8" stroke-width="1.2"/><path d="M9.375 11.25h3.75M11.25 13.125v-3.75" stroke="#728DB8" stroke-width="1.2"/></svg><svg fill="none" viewBox="0 0 25 25" id="rooms-icon" xmlns="http://www.w3.org/2000/svg"><path d="M23.864 0h-3.788a1.136 1.136 0 000 2.273h2.651v9.09h-3.409a1.136 1.136 0 000 2.273h3.41v9.091H11.591v-3.409a1.136 1.136 0 10-2.272 0v3.41H2.273v-9.092H9.32v1.137a1.136 1.136 0 002.272 0v-1.137h2.423a1.136 1.136 0 000-2.272h-2.423v-1.137a1.136 1.136 0 00-2.272 0v1.137H2.273V2.273H9.32v3.409a1.136 1.136 0 002.272 0v-3.41h3.18a1.136 1.136 0 100-2.272H1.137C.51 0 0 .509 0 1.136v22.728C0 24.49.509 25 1.136 25h22.728C24.49 25 25 24.491 25 23.864V1.136C25 .51 24.491 0 23.864 0z" fill="#FF7A00"/></svg><svg fill="none" viewBox="0 0 25 25" id="safety" xmlns="http://www.w3.org/2000/svg"><path d="M23.535 19.092H1.465a1.465 1.465 0 100 2.93h22.07a1.465 1.465 0 000-2.93zM19.094 6.656V9.57a.732.732 0 11-1.465 0V5.716a10.92 10.92 0 00-1.465-.634v5.953a.732.732 0 11-1.465 0V3.711a.733.733 0 00-.732-.732h-2.93a.733.733 0 00-.732.732v7.324a.732.732 0 11-1.465 0V5.082c-.505.179-.997.387-1.465.634V9.57a.732.732 0 11-1.465 0V6.656C3.246 8.66 1.516 11.839 1.516 15.43v2.197h21.972V15.43c0-3.591-1.73-6.77-4.394-8.774z" fill="#FF7A00"/></svg><svg fill="none" viewBox="0 0 15 15" id="search" xmlns="http://www.w3.org/2000/svg"><g clip-path="url(#bjclip0)" fill-rule="evenodd" clip-rule="evenodd" fill="#728DB8"><path d="M6.618 11.735a5.118 5.118 0 100-10.235 5.118 5.118 0 000 10.235zm0 1.5A6.618 6.618 0 106.618 0a6.618 6.618 0 000 13.235z"/><path d="M10.65 10.47a.75.75 0 011.06 0l2.94 2.939a.75.75 0 01-1.061 1.06l-2.94-2.939a.75.75 0 010-1.06z"/></g><defs><clipPath id="bjclip0"><path fill="#fff" d="M0 0h15v15H0z"/></clipPath></defs></svg><svg fill="none" viewBox="0 0 15 15" id="search-orange" xmlns="http://www.w3.org/2000/svg"><g clip-path="url(#bkclip0)" fill-rule="evenodd" clip-rule="evenodd" fill="#FF7A00"><path d="M6.618 11.735a5.118 5.118 0 100-10.235 5.118 5.118 0 000 10.235zm0 1.5A6.618 6.618 0 106.618 0a6.618 6.618 0 000 13.235z"/><path d="M10.65 10.47a.75.75 0 011.06 0l2.94 2.939a.75.75 0 01-1.061 1.06l-2.94-2.939a.75.75 0 010-1.06z"/></g><defs><clipPath id="bkclip0"><path fill="#fff" d="M0 0h15v15H0z"/></clipPath></defs></svg><svg fill="none" viewBox="0 0 15 15" id="search-white" xmlns="http://www.w3.org/2000/svg"><g clip-path="url(#blclip0)" fill-rule="evenodd" clip-rule="evenodd" fill="#fff"><path d="M6.618 11.735a5.118 5.118 0 100-10.235 5.118 5.118 0 000 10.235zm0 1.5A6.618 6.618 0 106.618 0a6.618 6.618 0 000 13.235z"/><path d="M10.65 10.47a.75.75 0 011.06 0l2.94 2.939a.75.75 0 01-1.061 1.06l-2.94-2.939a.75.75 0 010-1.06z"/></g><defs><clipPath id="blclip0"><path fill="#fff" d="M0 0h15v15H0z"/></clipPath></defs></svg><svg fill="none" viewBox="0 0 11 7" id="select-arrow" xmlns="http://www.w3.org/2000/svg"><path fill-rule="evenodd" clip-rule="evenodd" d="M0 1.347l.726-.7 4.774 4.6 4.774-4.6.726.7-5.5 5.3-5.5-5.3z" fill="#243238"/></svg><svg fill="none" viewBox="0 0 25 25" id="settings" xmlns="http://www.w3.org/2000/svg"><path d="M3.622 20.783H0v1.465h3.622V25h6.314v-2.752H25v-1.465H9.936v-2.752H3.622v2.752zM11.15 11.767H0v1.465h11.15v2.752h6.314v-2.752H25v-1.465h-7.536V9.015h-6.313v2.752zM3.622 2.752H0v1.465h3.622v2.752h6.314V4.217H25V2.752H9.936V0H3.622v2.752z" fill="#FF7A00"/></svg><svg fill="none" viewBox="0 0 25 25" id="share" xmlns="http://www.w3.org/2000/svg"><g clip-path="url(#boclip0)"><path d="M20.625 15c-1.405 0-2.644.678-3.445 1.71l-8.464-3.254c.009-.111.034-.218.034-.331 0-.21-.033-.412-.062-.614l8.672-4.003c.803.907 1.962 1.492 3.265 1.492A4.38 4.38 0 0025 5.625a4.38 4.38 0 00-4.375-4.375 4.38 4.38 0 00-4.375 4.375c0 .21.033.412.062.614L7.64 10.242C6.837 9.335 5.678 8.75 4.375 8.75A4.38 4.38 0 000 13.125 4.38 4.38 0 004.375 17.5c1.405 0 2.644-.678 3.445-1.711l8.463 3.255c-.008.111-.033.218-.033.33a4.38 4.38 0 004.375 4.376A4.38 4.38 0 0025 19.375 4.38 4.38 0 0020.625 15z" fill="#FF7A00"/></g><defs><clipPath id="boclip0"><path fill="#fff" d="M0 0h25v25H0z"/></clipPath></defs></svg><svg fill="none" viewBox="0 0 25 25" id="square-icon" xmlns="http://www.w3.org/2000/svg"><g clip-path="url(#bpclip0)"><path d="M23.958 18.194H6.806V1.042C6.806.466 6.339 0 5.764 0H1.042C.466 0 0 .466 0 1.042v1.041h1.527a.416.416 0 110 .834H0v2.166h1.527a.416.416 0 110 .834H0v2.167h1.527a.416.416 0 110 .833H0v2.166h1.527a.417.417 0 110 .833H0v2.167h1.527a.416.416 0 110 .834H0v2.166h1.527a.417.417 0 110 .834H0v6.041C0 24.534.466 25 1.042 25h6.041v-1.527a.416.416 0 11.834 0V25h2.166v-1.527a.416.416 0 11.833 0V25h2.167v-1.527a.416.416 0 11.834 0V25h2.166v-1.527a.416.416 0 11.833 0V25h2.168v-1.527a.416.416 0 11.833 0V25h2.166v-1.527a.416.416 0 11.834 0V25h1.041c.576 0 1.042-.466 1.042-1.041v-4.724c0-.574-.466-1.04-1.042-1.04zM3.43 22.291a.999.999 0 110-1.997.999.999 0 010 1.997z" fill="#FF7A00"/></g><defs><clipPath id="bpclip0"><path fill="#fff" d="M0 0h25v25H0z"/></clipPath></defs></svg><svg fill="none" viewBox="0 0 15 14" id="star" xmlns="http://www.w3.org/2000/svg"><path d="M7.5 0l1.684 5.182h5.449l-4.408 3.203 1.683 5.183L7.5 10.365l-4.408 3.203 1.683-5.183L.367 5.182h5.45L7.5 0z" fill="#FF7A00"/></svg><svg fill="none" viewBox="0 0 25 25" id="table" xmlns="http://www.w3.org/2000/svg"><path d="M9.043 25v-4.641h6.918V25h5.214V0H3.828v25h5.215zM15.96 2.297h2.918v2.918h-2.918V2.297zm0 4.242h2.918v2.918h-2.918V6.54zm0 4.242h2.918v2.917h-2.918v-2.917zm0 4.241h2.918v2.92h-2.918v-2.92zM11.043 2.297h2.919v2.918h-2.919V2.297zm0 4.242h2.919v2.918h-2.919V6.54zm0 4.242h2.919v2.917h-2.919v-2.917zm0 4.241h2.919v2.92h-2.919v-2.92zM6.126 2.297h2.917v2.918H6.127V2.297zm0 4.242h2.917v2.918H6.127V6.54zm0 4.242h2.917v2.917H6.127v-2.917zm0 4.241h2.917v2.92H6.127v-2.92z" fill="#FF7A00"/></svg><svg fill="none" viewBox="0 0 7 28" id="table-menu" xmlns="http://www.w3.org/2000/svg"><path d="M4.69 0H2.31C1.322 0 .522.8.522 1.786v2.38c0 .987.8 1.786 1.786 1.786H4.69c.986 0 1.786-.8 1.786-1.785V1.786C6.476.8 5.676 0 4.69 0zM4.69 10.952H2.31c-.987 0-1.787.8-1.787 1.786v2.38c0 .987.8 1.786 1.786 1.786H4.69c.986 0 1.786-.799 1.786-1.785v-2.381c0-.986-.8-1.786-1.786-1.786zM4.69 21.904H2.31c-.987 0-1.787.8-1.787 1.786v2.381c0 .986.8 1.786 1.786 1.786H4.69c.986 0 1.786-.8 1.786-1.786V23.69c0-.986-.8-1.786-1.786-1.786z" fill="#fff"/></svg><svg fill="none" viewBox="0 0 25 25" id="telegram" xmlns="http://www.w3.org/2000/svg"><g clip-path="url(#btclip0)"><path d="M9.81 15.814l-.414 5.816c.592 0 .848-.254 1.155-.56l2.774-2.65 5.748 4.21c1.054.587 1.797.277 2.081-.97l3.773-17.68h.001c.335-1.56-.563-2.168-1.59-1.786L1.16 10.684c-1.514.588-1.491 1.432-.258 1.814l5.67 1.764 13.17-8.241c.62-.41 1.183-.183.72.227L9.81 15.814z" fill="#728DB8"/></g><defs><clipPath id="btclip0"><path fill="#fff" d="M0 0h25v25H0z"/></clipPath></defs></svg><svg fill="none" viewBox="0 0 27 27" id="title-icon-blue" xmlns="http://www.w3.org/2000/svg"><path d="M15 0h12v12H15V0zM15 15h12v12H15V15zM0 15h12v12H0V15z" fill="#FF7A00"/></svg><svg fill="none" viewBox="0 0 25 25" id="user-icon" xmlns="http://www.w3.org/2000/svg"><path d="M12.498 12.227c2.78 0 5.033-2.737 5.033-6.114 0-3.376-.74-6.113-5.033-6.113S7.465 2.737 7.465 6.113c0 3.377 2.253 6.114 5.033 6.114zM2.993 21.56c0-.205-.002-.057 0 0zM22.004 21.722c.003-.057 0-.391 0 0z" fill="#FF7A00"/><path d="M21.994 21.314c-.093-5.882-.861-7.558-6.74-8.618 0 0-.827 1.054-2.755 1.054-1.929 0-2.756-1.054-2.756-1.054-5.814 1.049-6.63 2.7-6.736 8.427-.01.467-.013.492-.015.438l.001.618s1.4 2.82 9.506 2.82 9.505-2.82 9.505-2.82v-.457c0 .033-.004-.032-.01-.408z" fill="#FF7A00"/></svg><svg fill="none" viewBox="0 0 25 25" id="viber" xmlns="http://www.w3.org/2000/svg"><path d="M22.39 6.578c-.39-1.393-1.162-2.495-2.295-3.275-1.43-.986-3.075-1.335-4.495-1.547-1.965-.293-3.745-.334-5.44-.127-1.591.195-2.788.506-3.88 1.008-2.141.984-3.426 2.575-3.82 4.73a29.75 29.75 0 00-.393 2.894c-.171 2.087-.016 3.932.476 5.643.48 1.668 1.318 2.86 2.562 3.642.317.2.723.344 1.115.483.223.079.44.155.618.238.164.076.164.09.162.227-.014 1.186 0 3.51 0 3.51l.003.496h.892l.145-.14c.094-.09 2.303-2.223 3.089-3.082l.107-.12c.135-.155.135-.155.275-.158a94.255 94.255 0 003.226-.12c1.307-.072 2.82-.198 4.246-.793 1.305-.545 2.257-1.41 2.83-2.57.597-1.21.951-2.521 1.084-4.008.233-2.613.068-4.88-.507-6.931zM17.691 16.74c-.327.534-.816.904-1.393 1.145-.42.176-.85.139-1.266-.037-3.484-1.474-6.215-3.797-8.02-7.137-.373-.688-.632-1.437-.928-2.164-.061-.15-.057-.325-.084-.488.026-1.175.927-1.835 1.837-2.036.348-.077.655.046.914.293a8.038 8.038 0 011.704 2.358c.186.388.102.733-.215 1.022a2.78 2.78 0 01-.206.169c-.723.544-.83.955-.444 1.774.657 1.393 1.745 2.328 3.154 2.908.372.152.721.077 1.005-.224.038-.04.08-.079.109-.126.555-.926 1.36-.834 2.104-.305.489.347.964.713 1.447 1.067.736.54.73 1.049.282 1.78zm-4.62-9.24c-.163 0-.327.014-.489.04a.5.5 0 11-.164-.986 3.933 3.933 0 014.529 4.529.5.5 0 01-.987-.166A2.932 2.932 0 0013.072 7.5zm2.43 3a.5.5 0 01-1 0c0-.827-.674-1.5-1.5-1.5a.5.5 0 010-1c1.378 0 2.5 1.122 2.5 2.5zm2.854 1.11a.5.5 0 11-.975-.22 4.414 4.414 0 00-5.28-5.28.5.5 0 11-.222-.976 5.415 5.415 0 016.477 6.476z" fill="#728DB8"/></svg><svg fill="none" viewBox="0 0 25 25" id="whatsapp" xmlns="http://www.w3.org/2000/svg"><path d="M19.87 5.133a10.34 10.34 0 00-7.36-3.05c-5.735 0-10.403 4.666-10.405 10.401a10.377 10.377 0 001.388 5.2l-1.411 5.233 5.451-1.289c1.52.83 3.23 1.266 4.972 1.267h.004c5.735 0 10.402-4.667 10.405-10.401a10.335 10.335 0 00-3.043-7.36zM17.6 16.202c-.216.607-1.277 1.193-1.754 1.235-.478.044-.924.216-3.12-.65-2.643-1.041-4.312-3.75-4.44-3.923-.131-.175-1.062-1.41-1.062-2.69 0-1.278.672-1.907.91-2.167a.954.954 0 01.694-.325c.173 0 .347 0 .498.006.185.008.39.017.585.45.231.514.737 1.8.801 1.93.065.13.109.282.022.455-.086.173-.13.281-.26.433-.13.152-.272.339-.389.455-.13.13-.265.271-.114.53.152.261.672 1.112 1.445 1.8.994.886 1.83 1.16 2.091 1.291.26.13.412.108.564-.065.152-.173.65-.759.822-1.02.173-.26.347-.216.586-.13.238.087 1.517.716 1.776.847.26.13.433.194.498.303.064.107.064.628-.152 1.235z" fill="#728DB8"/></svg></svg>