<svg width="125" height="40" viewBox="0 0 125 40" fill="none" xmlns="http://www.w3.org/2000/svg">
<path d="M15.2381 0V11.4286L0 20.9524V9.52381L15.2381 0Z" fill="#F07300"/>
<path d="M0 20.9523L30.4762 39.9999V28.5713L0 9.52368V20.9523Z" fill="#FF7A00"/>
<path d="M15.2383 0V11.4286L30.4764 20.9524V9.52381L15.2383 0Z" fill="#FF7A00"/>
<path fill-rule="evenodd" clip-rule="evenodd" d="M24.3792 24.7618L15.2363 19.0475L30.4744 9.52368V20.9523L24.3792 24.7618Z" fill="#F07300"/>
<path fill-rule="evenodd" clip-rule="evenodd" d="M11.4286 31.9048L0 24.762V39.9998H11.4286V31.9048Z" fill="#FF7A00"/>
<path d="M42.815 32V8.273H61.955C63.231 8.273 64.32 8.735 65.222 9.659C66.124 10.561 66.575 11.628 66.575 12.86V19.262C66.575 20.516 66.124 21.594 65.222 22.496C64.32 23.398 63.231 23.849 61.955 23.849H60.668L66.542 30.779V32H61.79L54.959 23.849L47.171 23.882V32H42.815ZM48.326 19.46H61.031C61.625 19.46 61.955 19.427 62.021 19.361C62.109 19.295 62.153 18.954 62.153 18.338V13.784C62.153 13.168 62.109 12.827 62.021 12.761C61.955 12.673 61.625 12.629 61.031 12.629H48.326C47.71 12.629 47.358 12.673 47.27 12.761C47.204 12.827 47.171 13.168 47.171 13.784V18.338C47.171 18.954 47.204 19.295 47.27 19.361C47.358 19.427 47.71 19.46 48.326 19.46ZM99.419 32V8.273H118.559C119.835 8.273 120.924 8.735 121.826 9.659C122.728 10.561 123.179 11.628 123.179 12.86V19.262C123.179 20.516 122.728 21.594 121.826 22.496C120.924 23.398 119.835 23.849 118.559 23.849H117.272L123.146 30.779V32H118.394L111.563 23.849L103.775 23.882V32H99.419ZM104.93 19.46H117.635C118.229 19.46 118.559 19.427 118.625 19.361C118.713 19.295 118.757 18.954 118.757 18.338V13.784C118.757 13.168 118.713 12.827 118.625 12.761C118.559 12.673 118.229 12.629 117.635 12.629H104.93C104.314 12.629 103.962 12.673 103.874 12.761C103.808 12.827 103.775 13.168 103.775 13.784V18.338C103.775 18.954 103.808 19.295 103.874 19.361C103.962 19.427 104.314 19.46 104.93 19.46Z" fill="white"/>
<path d="M71.1024 32V22.892C71.1024 21.638 71.5424 20.571 72.4224 19.691C73.3244 18.789 74.4024 18.338 75.6564 18.338H89.1534C89.7694 18.338 90.1104 18.305 90.1764 18.239C90.2644 18.151 90.3084 17.799 90.3084 17.183V13.718C90.3084 13.102 90.2644 12.761 90.1764 12.695C90.1104 12.607 89.7694 12.563 89.1534 12.563H76.5804C75.9644 12.563 75.6124 12.607 75.5244 12.695C75.4584 12.761 75.4254 13.102 75.4254 13.718V14.576H71.1024V12.794C71.1024 11.518 71.5424 10.44 72.4224 9.56C73.3244 8.68 74.4024 8.24 75.6564 8.24H90.0774C91.3314 8.24 92.3984 8.68 93.2784 9.56C94.1804 10.44 94.6314 11.518 94.6314 12.794V18.14C94.6314 19.394 94.1804 20.472 93.2784 21.374C92.3984 22.254 91.3314 22.694 90.0774 22.694H76.5804C75.9644 22.694 75.6124 22.738 75.5244 22.826C75.4584 22.892 75.4254 23.233 75.4254 23.849V26.522C75.4254 27.138 75.4584 27.49 75.5244 27.578C75.6124 27.644 75.9644 27.677 76.5804 27.677H94.6314V32H71.1024Z" fill="#FF7A00"/>
</svg>
