<svg width="129" height="52" viewBox="0 0 129 52" fill="none" xmlns="http://www.w3.org/2000/svg">
<path d="M18 2V15.5L0 26.75V13.25L18 2Z" fill="#DB6A02"/>
<path d="M0 26.75L36 49.25V35.75L0 13.25V26.75Z" fill="#FF7A00"/>
<path d="M18 2V15.5L36 26.75V13.25L18 2Z" fill="#FF7A00"/>
<path fill-rule="evenodd" clip-rule="evenodd" d="M28.8 31.25L18 24.5L36 13.25V26.75L28.8 31.25Z" fill="#DB6A02"/>
<path fill-rule="evenodd" clip-rule="evenodd" d="M13.5 39.6875L0 31.25V49.25H13.5V39.6875Z" fill="#FF7A00"/>
<path d="M55.6133 17.4775V29.249H61.499C62.3057 29.249 63.0645 29.0986 63.7754 28.7979C64.4863 28.4834 65.1084 28.0596 65.6416 27.5264C66.1748 26.9932 66.5918 26.3711 66.8926 25.6602C67.207 24.9355 67.3643 24.1699 67.3643 23.3633C67.3643 22.5566 67.207 21.7979 66.8926 21.0869C66.5918 20.3623 66.1748 19.7334 65.6416 19.2002C65.1084 18.667 64.4863 18.25 63.7754 17.9492C63.0645 17.6348 62.3057 17.4775 61.499 17.4775H55.6133ZM55.6133 41H49.7275V11.5918H61.499C62.5791 11.5918 63.6182 11.7354 64.6162 12.0225C65.6143 12.2959 66.5439 12.6924 67.4053 13.2119C68.2803 13.7178 69.0732 14.333 69.7842 15.0576C70.5088 15.7686 71.124 16.5615 71.6299 17.4365C72.1494 18.3115 72.5459 19.248 72.8193 20.2461C73.1064 21.2441 73.25 22.2832 73.25 23.3633C73.25 24.375 73.1201 25.3594 72.8604 26.3164C72.6143 27.2734 72.252 28.1826 71.7734 29.0439C71.3086 29.9053 70.7344 30.6982 70.0508 31.4229C69.3672 32.1475 68.6016 32.7764 67.7539 33.3096L71.0146 41H64.7598L62.1963 35.0732L55.6133 35.1143V41ZM109.526 17.4775V29.249H115.412C116.218 29.249 116.977 29.0986 117.688 28.7979C118.399 28.4834 119.021 28.0596 119.554 27.5264C120.087 26.9932 120.504 26.3711 120.805 25.6602C121.12 24.9355 121.277 24.1699 121.277 23.3633C121.277 22.5566 121.12 21.7979 120.805 21.0869C120.504 20.3623 120.087 19.7334 119.554 19.2002C119.021 18.667 118.399 18.25 117.688 17.9492C116.977 17.6348 116.218 17.4775 115.412 17.4775H109.526ZM109.526 41H103.64V11.5918H115.412C116.492 11.5918 117.531 11.7354 118.529 12.0225C119.527 12.2959 120.457 12.6924 121.318 13.2119C122.193 13.7178 122.986 14.333 123.697 15.0576C124.421 15.7686 125.037 16.5615 125.542 17.4365C126.062 18.3115 126.458 19.248 126.732 20.2461C127.019 21.2441 127.163 22.2832 127.163 23.3633C127.163 24.375 127.033 25.3594 126.773 26.3164C126.527 27.2734 126.165 28.1826 125.686 29.0439C125.221 29.9053 124.647 30.6982 123.963 31.4229C123.28 32.1475 122.514 32.7764 121.666 33.3096L124.927 41H118.672L116.109 35.0732L109.526 35.1143V41Z" fill="#243238"/>
<path d="M98.053 20.4102C98.053 21.627 97.8205 22.7754 97.3557 23.8555C96.8909 24.9219 96.2551 25.8584 95.4485 26.665C94.6555 27.458 93.7258 28.0869 92.6594 28.5518C91.593 29.0166 90.4514 29.249 89.2346 29.249H86.2815C85.8713 29.249 85.4885 29.3242 85.133 29.4746C84.7776 29.625 84.4631 29.8369 84.1897 30.1104C83.9299 30.3701 83.7248 30.6777 83.5745 31.0332C83.4241 31.3887 83.3489 31.7715 83.3489 32.1816V35.1143H97.2532V41H77.4631V32.1816C77.4631 30.9648 77.6955 29.8232 78.1604 28.7568C78.6252 27.6768 79.2541 26.7402 80.0471 25.9473C80.8538 25.1406 81.7903 24.5117 82.8567 24.0605C83.9231 23.5957 85.0647 23.3633 86.2815 23.3633H89.2346C89.6448 23.3633 90.0276 23.2881 90.383 23.1377C90.7385 22.9873 91.0461 22.7822 91.3059 22.5225C91.5793 22.249 91.7913 21.9346 91.9416 21.5791C92.092 21.21 92.1672 20.8203 92.1672 20.4102C92.1672 20 92.092 19.6172 91.9416 19.2617C91.7913 18.9062 91.5793 18.5986 91.3059 18.3389C91.0461 18.0654 90.7385 17.8535 90.383 17.7031C90.0276 17.5527 89.6448 17.4775 89.2346 17.4775H78.7346V11.5918H89.2346C90.4514 11.5918 91.593 11.8242 92.6594 12.2891C93.7258 12.7539 94.6555 13.3896 95.4485 14.1963C96.2551 14.9893 96.8909 15.9189 97.3557 16.9854C97.8205 18.0518 98.053 19.1934 98.053 20.4102Z" fill="#FF7A00"/>
</svg>
