<svg width="132" height="50" viewBox="0 0 132 50" fill="none" xmlns="http://www.w3.org/2000/svg">
<path d="M18.9994 0V14.2857L0 26.1905V11.9048L18.9994 0Z" fill="#D96800"/>
<path d="M0 26.1905L37.9989 50V35.7143L0 11.9048V26.1905Z" fill="#FF7A00"/>
<path d="M19.0006 0V14.2857L38 26.1905V11.9048L19.0006 0Z" fill="#FF7A00"/>
<path fill-rule="evenodd" clip-rule="evenodd" d="M30.395 30.9524L18.9953 23.8095L37.9948 11.9048V26.1905L30.395 30.9524Z" fill="#D96800"/>
<path fill-rule="evenodd" clip-rule="evenodd" d="M14.2496 39.881L0 30.9524V50H14.2496V39.881Z" fill="#FF7A00"/>
<path fill-rule="evenodd" clip-rule="evenodd" d="M70.0588 16.0197H55.9412V25.2303H70.0588V16.0197ZM51 11V30.25H70.0588C72.7878 30.25 75 28.0026 75 25.2303V14.0118C75 12.3484 73.6727 11 72.0353 11H51Z" fill="#243238"/>
<path d="M51 30.25L55.6154 30.25V39H51L51 30.25Z" fill="#243238"/>
<path d="M64.8462 30.25H70.3846L75 39H69.4615L64.8462 30.25Z" fill="#243238"/>
<path fill-rule="evenodd" clip-rule="evenodd" d="M127.059 16.0197H112.941V25.2303H127.059V16.0197ZM108 11V30.25H127.059C129.788 30.25 132 28.0026 132 25.2303V14.0118C132 12.3484 130.673 11 129.035 11H108Z" fill="#243238"/>
<path d="M108 30.25L112.615 30.25V39H108L108 30.25Z" fill="#243238"/>
<path d="M121.846 30.25H127.385L132 39H126.462L121.846 30.25Z" fill="#243238"/>
<path fill-rule="evenodd" clip-rule="evenodd" d="M98.5614 15.3077H82.0175V11H98.5614C101.013 11 103 13.1215 103 15.7385V22.2C103 24.817 101.013 26.9385 98.5614 26.9385H84.4386C84.2157 26.9385 84.0351 27.1313 84.0351 27.3692V34.2615C84.0351 34.4994 84.2157 34.6923 84.4386 34.6923H103V39H84.4386C81.9872 39 80 36.8785 80 34.2615V27.3692C80 24.7523 81.9872 22.6308 84.4386 22.6308H98.5614C98.7843 22.6308 98.9649 22.4379 98.9649 22.2V15.7385C98.9649 15.5006 98.7843 15.3077 98.5614 15.3077Z" fill="#FF7A00"/>
</svg>
