<svg width="45" height="45" viewBox="0 0 45 45" fill="none" xmlns="http://www.w3.org/2000/svg">
<path d="M0 0H1V1H0V0Z" fill="white"/>
<path d="M0 44H1V45H0V44Z" fill="white"/>
<path d="M1 0L1 1L-4.37114e-08 1L0 -4.37114e-08L1 0Z" fill="white"/>
<path d="M1 44L1 45L-4.37114e-08 45L0 44L1 44Z" fill="white"/>
<path d="M11 0H12V1H11V0Z" fill="white"/>
<path d="M11 44H12V45H11V44Z" fill="white"/>
<path d="M1 11L1 12L-4.37114e-08 12L0 11L1 11Z" fill="white"/>
<path d="M45 11L45 12L44 12L44 11L45 11Z" fill="white"/>
<path d="M22 0H23V1H22V0Z" fill="white"/>
<path d="M22 44H23V45H22V44Z" fill="white"/>
<path d="M1 22L1 23L-4.37114e-08 23L0 22L1 22Z" fill="white"/>
<path d="M45 22L45 23L44 23L44 22L45 22Z" fill="white"/>
<path d="M33 0H34V1H33V0Z" fill="white"/>
<path d="M33 44H34V45H33V44Z" fill="white"/>
<path d="M1 33L1 34L-4.37114e-08 34L0 33L1 33Z" fill="white"/>
<path d="M45 33L45 34L44 34L44 33L45 33Z" fill="white"/>
<path d="M44 0H45V1H44V0Z" fill="white"/>
<path d="M44 44H45V45H44V44Z" fill="white"/>
<path d="M1 44L1 45L-4.37114e-08 45L0 44L1 44Z" fill="white"/>
<path d="M45 44L45 45L44 45L44 44L45 44Z" fill="white"/>
</svg>
