<svg width="129" height="52" fill="none" xmlns="http://www.w3.org/2000/svg"><path d="M18 2v13.5L0 26.75v-13.5L18 2z" fill="#DB6A02"/><path d="M0 26.75l36 22.5v-13.5L0 13.25v13.5zM18 2v13.5l18 11.25v-13.5L18 2z" fill="#FF7A00"/><path fill-rule="evenodd" clip-rule="evenodd" d="M28.8 31.25L18 24.5l18-11.25v13.5l-7.2 4.5z" fill="#DB6A02"/><path fill-rule="evenodd" clip-rule="evenodd" d="M13.5 39.688L0 31.25v18h13.5v-9.563z" fill="#FF7A00"/><path d="M55.613 17.477V29.25H61.5c.807 0 1.566-.15 2.276-.451a6.106 6.106 0 001.867-1.272 5.817 5.817 0 001.25-1.866 5.71 5.71 0 00.472-2.297c0-.806-.157-1.565-.471-2.276a5.76 5.76 0 00-1.251-1.887 5.817 5.817 0 00-1.867-1.25 5.565 5.565 0 00-2.276-.473h-5.886zm0 23.523h-5.886V11.592H61.5c1.08 0 2.12.143 3.117.43.998.274 1.928.67 2.79 1.19a11.107 11.107 0 012.378 1.846 11.07 11.07 0 011.846 2.378c.52.875.916 1.812 1.19 2.81.286.998.43 2.037.43 3.117 0 1.012-.13 1.996-.39 2.953a11.477 11.477 0 01-1.087 2.728 11.22 11.22 0 01-1.722 2.379 11.731 11.731 0 01-2.297 1.887l3.26 7.69H64.76l-2.564-5.927-6.583.041V41zm53.913-23.523V29.25h5.886c.806 0 1.565-.15 2.276-.451a6.101 6.101 0 001.866-1.272 5.824 5.824 0 001.251-1.866 5.7 5.7 0 00.472-2.297c0-.806-.157-1.565-.472-2.276a5.766 5.766 0 00-1.251-1.887 5.813 5.813 0 00-1.866-1.25 5.566 5.566 0 00-2.276-.473h-5.886zm0 23.523h-5.886V11.592h11.772c1.08 0 2.119.143 3.117.43.998.274 1.928.67 2.789 1.19a11.108 11.108 0 012.379 1.846c.724.71 1.34 1.503 1.845 2.378.52.875.916 1.812 1.19 2.81.287.998.431 2.037.431 3.117 0 1.012-.13 1.996-.39 2.953a11.456 11.456 0 01-1.087 2.728 11.215 11.215 0 01-1.723 2.379 11.706 11.706 0 01-2.297 1.887l3.261 7.69h-6.255l-2.563-5.927-6.583.041V41z" fill="#243238"/><path d="M98.053 20.41a8.623 8.623 0 01-.697 3.445 9.046 9.046 0 01-1.907 2.81 8.973 8.973 0 01-2.79 1.887 8.477 8.477 0 01-3.424.697H86.28a2.917 2.917 0 00-2.091.861 2.917 2.917 0 00-.84 2.071v2.933h13.903V41h-19.79v-8.818a8.49 8.49 0 01.697-3.425 8.761 8.761 0 014.696-4.696 8.477 8.477 0 013.425-.698h2.954a2.916 2.916 0 002.07-.84c.274-.274.486-.588.637-.944.15-.369.225-.759.225-1.169 0-.41-.075-.793-.225-1.148a2.717 2.717 0 00-.636-.923 2.719 2.719 0 00-.923-.636 2.916 2.916 0 00-1.148-.226h-10.5v-5.885h10.5c1.216 0 2.358.232 3.424.697a8.799 8.799 0 012.79 1.907 8.8 8.8 0 011.907 2.79 8.477 8.477 0 01.697 3.424z" fill="#FF7A00"/></svg>