<svg width="132" height="50" fill="none" xmlns="http://www.w3.org/2000/svg"><path d="M19 0v14.286L0 26.19V11.905L19 0z" fill="#D96800"/><path d="M0 26.19L37.999 50V35.714L0 11.904v14.287zM19 0v14.286L38 26.19V11.905L19 0z" fill="#FF7A00"/><path fill-rule="evenodd" clip-rule="evenodd" d="M30.395 30.952l-11.4-7.143 19-11.904V26.19l-7.6 4.761z" fill="#D96800"/><path fill-rule="evenodd" clip-rule="evenodd" d="M14.25 39.881L0 30.952V50h14.25V39.881z" fill="#FF7A00"/><path fill-rule="evenodd" clip-rule="evenodd" d="M70.059 16.02H55.94v9.21h14.12v-9.21zM51 11v19.25h19.059c2.729 0 4.941-2.247 4.941-5.02V14.012C75 12.348 73.673 11 72.035 11H51z" fill="#fff"/><path d="M51 30.25h4.615V39H51v-8.75zm13.846 0h5.539L75 39h-5.538l-4.616-8.75z" fill="#fff"/><path fill-rule="evenodd" clip-rule="evenodd" d="M127.059 16.02h-14.118v9.21h14.118v-9.21zM108 11v19.25h19.059c2.729 0 4.941-2.247 4.941-5.02V14.012c0-1.664-1.327-3.012-2.965-3.012H108z" fill="#fff"/><path d="M108 30.25h4.615V39H108v-8.75zm13.846 0h5.539L132 39h-5.538l-4.616-8.75z" fill="#fff"/><path fill-rule="evenodd" clip-rule="evenodd" d="M98.561 15.308H82.017V11h16.544c2.452 0 4.439 2.121 4.439 4.739V22.2c0 2.617-1.987 4.739-4.439 4.739H84.44c-.223 0-.404.192-.404.43v6.892c0 .238.18.431.404.431H103V39H84.439C81.987 39 80 36.879 80 34.261V27.37c0-2.617 1.987-4.738 4.439-4.738H98.56c.223 0 .404-.193.404-.431V15.74c0-.238-.18-.431-.404-.431z" fill="#FF7A00"/></svg>