<svg width="125" height="40" fill="none" xmlns="http://www.w3.org/2000/svg"><path d="M15.238 0v11.429L0 20.952V9.524L15.238 0z" fill="#F07300"/><path d="M0 20.952L30.476 40V28.57L0 9.524v11.428zM15.238 0v11.429l15.238 9.523V9.524L15.238 0z" fill="#FF7A00"/><path fill-rule="evenodd" clip-rule="evenodd" d="M24.38 24.762l-9.144-5.715 15.238-9.523v11.428l-6.095 3.81z" fill="#F07300"/><path fill-rule="evenodd" clip-rule="evenodd" d="M11.429 31.905L0 24.762V40h11.429v-8.095z" fill="#FF7A00"/><path d="M42.815 32V8.273h19.14c1.276 0 2.365.462 3.267 1.386.902.902 1.353 1.969 1.353 3.201v6.402c0 1.254-.451 2.332-1.353 3.234-.902.902-1.991 1.353-3.267 1.353h-1.287l5.874 6.93V32H61.79l-6.831-8.151-7.788.033V32h-4.356zm5.511-12.54h12.705c.594 0 .924-.033.99-.099.088-.066.132-.407.132-1.023v-4.554c0-.616-.044-.957-.132-1.023-.066-.088-.396-.132-.99-.132H48.326c-.616 0-.968.044-1.056.132-.066.066-.099.407-.099 1.023v4.554c0 .616.033.957.099 1.023.088.066.44.099 1.056.099zM99.419 32V8.273h19.14c1.276 0 2.365.462 3.267 1.386.902.902 1.353 1.969 1.353 3.201v6.402c0 1.254-.451 2.332-1.353 3.234-.902.902-1.991 1.353-3.267 1.353h-1.287l5.874 6.93V32h-4.752l-6.831-8.151-7.788.033V32h-4.356zm5.511-12.54h12.705c.594 0 .924-.033.99-.099.088-.066.132-.407.132-1.023v-4.554c0-.616-.044-.957-.132-1.023-.066-.088-.396-.132-.99-.132H104.93c-.616 0-.968.044-1.056.132-.066.066-.099.407-.099 1.023v4.554c0 .616.033.957.099 1.023.088.066.44.099 1.056.099z" fill="#fff"/><path d="M71.102 32v-9.108c0-1.254.44-2.321 1.32-3.201.902-.902 1.98-1.353 3.234-1.353h13.497c.616 0 .957-.033 1.023-.099.088-.088.132-.44.132-1.056v-3.465c0-.616-.044-.957-.132-1.023-.066-.088-.407-.132-1.023-.132H76.58c-.616 0-.968.044-1.056.132-.066.066-.099.407-.099 1.023v.858h-4.323v-1.782c0-1.276.44-2.354 1.32-3.234.902-.88 1.98-1.32 3.234-1.32h14.421c1.254 0 2.321.44 3.201 1.32.902.88 1.353 1.958 1.353 3.234v5.346c0 1.254-.45 2.332-1.353 3.234-.88.88-1.947 1.32-3.2 1.32H76.58c-.616 0-.968.044-1.056.132-.066.066-.099.407-.099 1.023v2.673c0 .616.033.968.1 1.056.087.066.44.099 1.055.099h18.051V32H71.102z" fill="#FF7A00"/></svg>