<svg width="35" height="35" viewBox="0 0 35 35" fill="none" xmlns="http://www.w3.org/2000/svg">
<g clip-path="url(#clip0)">
<path d="M12.7133 0H2.6647C1.1953 0 0 1.1953 0 2.6647V12.7133C0 14.1827 1.1953 15.378 2.6647 15.378H12.7133C14.1827 15.378 15.378 14.1827 15.378 12.7133V2.6647C15.3778 1.1953 14.1827 0 12.7133 0Z" fill="#FF7A00"/>
<path d="M32.3344 0H22.2858C20.8164 0 19.6211 1.1953 19.6211 2.6647V12.7133C19.6211 14.1827 20.8164 15.378 22.2858 15.378H32.3344C33.8038 15.378 34.9991 14.1827 34.9991 12.7133V2.6647C34.9991 1.1953 33.8038 0 32.3344 0Z" fill="#FF7A00"/>
<path d="M12.7133 19.6219H2.6647C1.1953 19.6219 0 20.8171 0 22.2865V32.3352C0 33.8046 1.1953 34.9999 2.6647 34.9999H12.7133C14.1827 34.9999 15.378 33.8046 15.378 32.3352V22.2865C15.3778 20.8171 14.1827 19.6219 12.7133 19.6219Z" fill="#FF7A00"/>
<path d="M32.3344 19.6219H22.2858C20.8164 19.6219 19.6211 20.8172 19.6211 22.2867V32.3353C19.6211 33.8047 20.8164 35 22.2858 35H32.3344C33.8038 34.9999 34.9991 33.8046 34.9991 32.3352V22.2865C34.9991 20.8171 33.8038 19.6219 32.3344 19.6219Z" fill="#FF7A00"/>
</g>
<defs>
<clipPath id="clip0">
<rect width="35" height="35" fill="white"/>
</clipPath>
</defs>
</svg>
