<svg width="25" height="25" viewBox="0 0 25 25" fill="none" xmlns="http://www.w3.org/2000/svg">
<path d="M6.24835 0C5.75522 0 5.35547 0.399745 5.35547 0.892874V2.67857H7.14117V0.892874C7.14117 0.399745 6.74143 0 6.24835 0Z" fill="#FF7A00"/>
<path d="M18.7483 0C18.2552 0 17.8555 0.399745 17.8555 0.892874V2.67857H19.6412V0.892874C19.6412 0.399745 19.2415 0 18.7483 0Z" fill="#FF7A00"/>
<path d="M22.3214 2.67859H19.6429V6.25003C19.6429 6.74316 19.2431 7.14291 18.75 7.14291C18.2569 7.14291 17.8571 6.74316 17.8571 6.25003V2.67859H7.14284V6.25003C7.14284 6.74316 6.74309 7.14291 6.24996 7.14291C5.75683 7.14291 5.35709 6.74316 5.35709 6.25003V2.67859H2.67857C1.19924 2.67859 0 3.87782 0 5.35716V22.3214C0 23.8008 1.19924 25 2.67857 25H22.3214C23.8008 25 25 23.8008 25 22.3214V5.35716C25 3.87782 23.8008 2.67859 22.3214 2.67859ZM23.2143 22.3214C23.2143 22.8146 22.8145 23.2143 22.3214 23.2143H2.67857C2.18544 23.2143 1.7857 22.8146 1.7857 22.3214V10.7143H23.2143V22.3214Z" fill="#FF7A00"/>
<path d="M7.14342 12.5H5.35772C4.86459 12.5 4.46484 12.8997 4.46484 13.3929C4.46484 13.886 4.86459 14.2858 5.35772 14.2858H7.14342C7.63655 14.2858 8.03629 13.886 8.03629 13.3929C8.03629 12.8997 7.63655 12.5 7.14342 12.5Z" fill="#FF7A00"/>
<path d="M13.3934 12.5H11.6077C11.1146 12.5 10.7148 12.8997 10.7148 13.3929C10.7148 13.886 11.1146 14.2858 11.6077 14.2858H13.3934C13.8865 14.2858 14.2863 13.886 14.2863 13.3929C14.2863 12.8997 13.8865 12.5 13.3934 12.5Z" fill="#FF7A00"/>
<path d="M19.6434 12.5H17.8577C17.3646 12.5 16.9648 12.8997 16.9648 13.3929C16.9648 13.886 17.3646 14.2858 17.8577 14.2858H19.6434C20.1365 14.2858 20.5363 13.886 20.5363 13.3929C20.5363 12.8997 20.1365 12.5 19.6434 12.5Z" fill="#FF7A00"/>
<path d="M7.14342 16.0715H5.35772C4.86459 16.0715 4.46484 16.4712 4.46484 16.9643C4.46484 17.4575 4.86459 17.8572 5.35772 17.8572H7.14342C7.63655 17.8572 8.03629 17.4575 8.03629 16.9643C8.03629 16.4712 7.63655 16.0715 7.14342 16.0715Z" fill="#FF7A00"/>
<path d="M13.3934 16.0715H11.6077C11.1146 16.0715 10.7148 16.4712 10.7148 16.9643C10.7148 17.4575 11.1146 17.8572 11.6077 17.8572H13.3934C13.8865 17.8572 14.2863 17.4575 14.2863 16.9643C14.2863 16.4712 13.8865 16.0715 13.3934 16.0715Z" fill="#FF7A00"/>
<path d="M19.6434 16.0715H17.8577C17.3646 16.0715 16.9648 16.4712 16.9648 16.9643C16.9648 17.4575 17.3646 17.8572 17.8577 17.8572H19.6434C20.1365 17.8572 20.5363 17.4575 20.5363 16.9643C20.5362 16.4712 20.1365 16.0715 19.6434 16.0715Z" fill="#FF7A00"/>
<path d="M7.14342 19.6428H5.35772C4.86459 19.6428 4.46484 20.0426 4.46484 20.5357C4.46484 21.0288 4.86459 21.4285 5.35772 21.4285H7.14342C7.63655 21.4285 8.03629 21.0288 8.03629 20.5356C8.03629 20.0425 7.63655 19.6428 7.14342 19.6428Z" fill="#FF7A00"/>
<path d="M13.3934 19.6428H11.6077C11.1146 19.6428 10.7148 20.0426 10.7148 20.5357C10.7148 21.0288 11.1146 21.4286 11.6077 21.4286H13.3934C13.8865 21.4286 14.2863 21.0288 14.2863 20.5357C14.2863 20.0426 13.8865 19.6428 13.3934 19.6428Z" fill="#FF7A00"/>
<path d="M19.6434 19.6428H17.8577C17.3646 19.6428 16.9648 20.0426 16.9648 20.5357C16.9648 21.0288 17.3646 21.4286 17.8577 21.4286H19.6434C20.1365 21.4286 20.5363 21.0288 20.5363 20.5357C20.5363 20.0426 20.1365 19.6428 19.6434 19.6428Z" fill="#FF7A00"/>
</svg>
