<svg width="25" height="25" viewBox="0 0 25 25" fill="none" xmlns="http://www.w3.org/2000/svg">
<path fill-rule="evenodd" clip-rule="evenodd" d="M24.6891 1.79707C25.1002 1.38597 25.1002 0.719434 24.6891 0.308329C24.278 -0.102777 23.6116 -0.102776 23.2005 0.308329L12.5 11.01L1.79949 0.308331C1.38843 -0.102775 0.721968 -0.102775 0.310905 0.308331C-0.100157 0.719436 -0.100158 1.38597 0.310905 1.79708L11.0114 12.4987L0.308297 23.2029C-0.102765 23.614 -0.102766 24.2806 0.308297 24.6917C0.719359 25.1028 1.38582 25.1028 1.79689 24.6917L12.5 13.9874L23.2031 24.6917C23.6142 25.1028 24.2806 25.1028 24.6917 24.6917C25.1028 24.2806 25.1028 23.614 24.6917 23.2029L13.9886 12.4987L24.6891 1.79707Z" fill="#FF7A00"/>
</svg>
