<svg width="20" height="20" viewBox="0 0 20 20" fill="none" xmlns="http://www.w3.org/2000/svg">
<path d="M5.00044 0C4.60593 0 4.28613 0.319796 4.28613 0.714299V2.14286H5.7147V0.714299C5.7147 0.319796 5.3949 0 5.00044 0Z" fill="#A1AFC5"/>
<path d="M15.0004 0C14.6059 0 14.2861 0.319796 14.2861 0.714299V2.14286H15.7147V0.714299C15.7147 0.319796 15.3949 0 15.0004 0Z" fill="#A1AFC5"/>
<path d="M17.8571 2.14282H15.7143V4.99998C15.7143 5.39448 15.3945 5.71428 15 5.71428C14.6055 5.71428 14.2857 5.39448 14.2857 4.99998V2.14282H5.71427V4.99998C5.71427 5.39448 5.39447 5.71428 4.99997 5.71428C4.60547 5.71428 4.28567 5.39448 4.28567 4.99998V2.14282H2.14286C0.959388 2.14282 0 3.10221 0 4.28568V17.8571C0 19.0406 0.959388 20 2.14286 20H17.8571C19.0406 20 20 19.0406 20 17.8571V4.28568C20 3.10221 19.0406 2.14282 17.8571 2.14282ZM18.5714 17.8571C18.5714 18.2516 18.2516 18.5714 17.8571 18.5714H2.14286C1.74835 18.5714 1.42856 18.2516 1.42856 17.8571V8.57139H18.5714V17.8571Z" fill="#A1AFC5"/>
<path d="M5.71415 10H4.28559C3.89109 10 3.57129 10.3198 3.57129 10.7143C3.57129 11.1088 3.89109 11.4286 4.28559 11.4286H5.71415C6.10865 11.4286 6.42845 11.1088 6.42845 10.7143C6.42845 10.3198 6.10865 10 5.71415 10Z" fill="#A1AFC5"/>
<path d="M10.7141 10H9.28559C8.89109 10 8.57129 10.3198 8.57129 10.7143C8.57129 11.1088 8.89109 11.4286 9.28559 11.4286H10.7141C11.1086 11.4286 11.4284 11.1088 11.4284 10.7143C11.4284 10.3198 11.1086 10 10.7141 10Z" fill="#A1AFC5"/>
<path d="M15.7141 10H14.2856C13.8911 10 13.5713 10.3198 13.5713 10.7143C13.5713 11.1088 13.8911 11.4286 14.2856 11.4286H15.7141C16.1086 11.4286 16.4284 11.1088 16.4284 10.7143C16.4284 10.3198 16.1086 10 15.7141 10Z" fill="#A1AFC5"/>
<path d="M5.71415 12.8572H4.28559C3.89109 12.8572 3.57129 13.177 3.57129 13.5715C3.57129 13.966 3.89109 14.2858 4.28559 14.2858H5.71415C6.10865 14.2858 6.42845 13.966 6.42845 13.5715C6.42845 13.177 6.10865 12.8572 5.71415 12.8572Z" fill="#A1AFC5"/>
<path d="M10.7141 12.8572H9.28559C8.89109 12.8572 8.57129 13.177 8.57129 13.5715C8.57129 13.966 8.89109 14.2858 9.28559 14.2858H10.7141C11.1086 14.2858 11.4284 13.966 11.4284 13.5715C11.4284 13.177 11.1086 12.8572 10.7141 12.8572Z" fill="#A1AFC5"/>
<path d="M15.7141 12.8572H14.2856C13.8911 12.8572 13.5713 13.177 13.5713 13.5715C13.5713 13.966 13.8911 14.2858 14.2856 14.2858H15.7141C16.1086 14.2858 16.4284 13.966 16.4284 13.5715C16.4284 13.177 16.1086 12.8572 15.7141 12.8572Z" fill="#A1AFC5"/>
<path d="M5.71415 15.7141H4.28559C3.89109 15.7141 3.57129 16.0339 3.57129 16.4284C3.57129 16.8229 3.89109 17.1427 4.28559 17.1427H5.71415C6.10865 17.1427 6.42845 16.8229 6.42845 16.4284C6.42845 16.0339 6.10865 15.7141 5.71415 15.7141Z" fill="#A1AFC5"/>
<path d="M10.7141 15.7141H9.28559C8.89109 15.7141 8.57129 16.0339 8.57129 16.4284C8.57129 16.8229 8.89109 17.1427 9.28559 17.1427H10.7141C11.1086 17.1427 11.4284 16.8229 11.4284 16.4284C11.4284 16.0339 11.1086 15.7141 10.7141 15.7141Z" fill="#A1AFC5"/>
<path d="M15.7141 15.7141H14.2856C13.8911 15.7141 13.5713 16.0339 13.5713 16.4284C13.5713 16.8229 13.8911 17.1427 14.2856 17.1427H15.7141C16.1086 17.1427 16.4284 16.8229 16.4284 16.4284C16.4284 16.0339 16.1086 15.7141 15.7141 15.7141Z" fill="#A1AFC5"/>
</svg>
