<svg width="15" height="15" viewBox="0 0 15 15" fill="none" xmlns="http://www.w3.org/2000/svg">
<path d="M14.3574 0.505529L14.3393 0.489062C13.9941 0.173698 13.5466 0 13.0792 0C12.5552 0 12.0521 0.221809 11.6989 0.608501L5.01963 7.92092C4.95875 7.98756 4.91257 8.06619 4.88402 8.1518L4.09864 10.5063C4.00784 10.7785 4.05341 11.0795 4.22053 11.3115C4.38898 11.5453 4.66036 11.6849 4.94654 11.6849H4.94658C5.07036 11.6849 5.19135 11.6595 5.3061 11.6092L7.58008 10.6144C7.66276 10.5783 7.73692 10.5252 7.79776 10.4585L14.477 3.14616C15.1721 2.38529 15.1185 1.20079 14.3574 0.505529ZM5.60341 10.0713L6.06426 8.68974L6.10313 8.64718L6.97661 9.44498L6.93774 9.48755L5.60341 10.0713ZM13.5247 2.27626L7.84652 8.4927L6.97304 7.69489L12.6512 1.47841C12.7623 1.35682 12.9143 1.28983 13.0792 1.28983C13.2239 1.28983 13.3625 1.34366 13.4697 1.4416L13.4877 1.45807C13.7235 1.67343 13.7401 2.04048 13.5247 2.27626Z" fill="#FF7A00"/>
<path d="M13.0626 5.94987C12.7064 5.94987 12.4177 6.23862 12.4177 6.59478V12.07C12.4177 12.9743 11.6819 13.7101 10.7775 13.7101H2.96119C2.05681 13.7101 1.32108 12.9743 1.32108 12.07V4.31715C1.32108 3.41281 2.05685 2.67704 2.96119 2.67704H8.61871C8.97488 2.67704 9.26363 2.38829 9.26363 2.03212C9.26363 1.67596 8.97488 1.38721 8.61871 1.38721H2.96119C1.34559 1.38721 0.03125 2.70159 0.03125 4.31715V12.07C0.03125 13.6855 1.34563 14.9999 2.96119 14.9999H10.7775C12.3931 14.9999 13.7075 13.6855 13.7075 12.07V6.59478C13.7075 6.23862 13.4187 5.94987 13.0626 5.94987Z" fill="#FF7A00"/>
</svg>
