<svg width="15" height="15" viewBox="0 0 15 15" fill="none" xmlns="http://www.w3.org/2000/svg">
<path d="M3.90596 11.5818C2.90538 11.5818 2.01535 10.9411 1.69216 9.98737L1.6703 9.9155C1.59408 9.66292 1.56215 9.45051 1.56215 9.23799V4.97656L0.0458864 10.038C-0.149126 10.7824 0.295259 11.5542 1.04086 11.7599L10.7055 14.3481C10.8261 14.3794 10.9468 14.3944 11.0656 14.3944C11.688 14.3944 12.2568 13.9812 12.4162 13.3724L12.9793 11.5818H3.90596Z" fill="#FF7A00"/>
<path d="M5.62311 5.01918C6.31252 5.01918 6.87307 4.45852 6.87307 3.76911C6.87307 3.0797 6.31252 2.51904 5.62311 2.51904C4.93371 2.51904 4.37305 3.0797 4.37305 3.76911C4.37305 4.45852 4.93371 5.01918 5.62311 5.01918Z" fill="#FF7A00"/>
<path d="M13.4377 0.644531H4.0625C3.20131 0.644531 2.5 1.34584 2.5 2.20715V9.08224C2.5 9.94354 3.20131 10.6449 4.0625 10.6449H13.4377C14.299 10.6449 15.0003 9.94354 15.0003 9.08224V2.20715C15.0003 1.34584 14.299 0.644531 13.4377 0.644531ZM4.0625 1.8946H13.4377C13.6103 1.8946 13.7503 2.03456 13.7503 2.20715V6.64413L11.7759 4.34026C11.5665 4.09467 11.2633 3.9634 10.9377 3.95596C10.6139 3.95779 10.3102 4.10153 10.1027 4.35033L7.78135 7.13658L7.0251 6.38217C6.59766 5.95472 5.90195 5.95472 5.47508 6.38217L3.75007 8.10661V2.20715C3.75007 2.03456 3.89003 1.8946 4.0625 1.8946Z" fill="#FF7A00"/>
</svg>
