<svg width="15" height="15" viewBox="0 0 15 15" fill="none" xmlns="http://www.w3.org/2000/svg">
<g clip-path="url(#clip0)">
<path d="M11.875 7.52885C11.5294 7.52885 11.25 7.80888 11.25 8.15381V13.1538C11.25 13.4982 10.97 13.7788 10.625 13.7788H1.875C1.52996 13.7788 1.25004 13.4982 1.25004 13.1538V4.40381C1.25004 4.05946 1.52996 3.77885 1.875 3.77885H6.87504C7.22065 3.77885 7.5 3.49881 7.5 3.15388C7.5 2.80885 7.22065 2.52881 6.87504 2.52881H1.875C0.841255 2.52881 0 3.37006 0 4.40381V13.1538C0 14.1876 0.841255 15.0288 1.875 15.0288H10.625C11.6588 15.0288 12.5 14.1876 12.5 13.1538V8.15381C12.5 7.8082 12.2206 7.52885 11.875 7.52885Z" fill="#FF7A00"/>
<path d="M5.85971 6.95964C5.816 7.00336 5.78659 7.05898 5.77411 7.11894L5.33226 9.32903C5.31166 9.43145 5.34416 9.53708 5.41786 9.61147C5.47725 9.67086 5.55725 9.70268 5.63919 9.70268C5.6591 9.70268 5.67981 9.70084 5.70041 9.6965L7.90981 9.25464C7.97103 9.24205 8.02665 9.21275 8.0698 9.16892L13.0148 4.22393L10.8054 2.01465L5.85971 6.95964Z" fill="#FF7A00"/>
<path d="M14.5431 0.486345C13.9338 -0.123053 12.9425 -0.123053 12.3337 0.486345L11.4688 1.35129L13.6781 3.56069L14.5431 2.69563C14.8381 2.40129 15.0006 2.00875 15.0006 1.59127C15.0006 1.17379 14.8381 0.78126 14.5431 0.486345Z" fill="#FF7A00"/>
</g>
<defs>
<clipPath id="clip0">
<rect width="15" height="15" fill="white"/>
</clipPath>
</defs>
</svg>
