<svg width="35" height="35" viewBox="0 0 35 35" fill="none" xmlns="http://www.w3.org/2000/svg">
<g clip-path="url(#clip0)">
<path d="M14.1072 13.625C14.3833 13.625 14.6072 13.4011 14.6072 13.125V8.22354C14.6072 5.65971 15.3649 3.74098 16.6178 2.46487C17.8704 1.18901 19.6723 0.5 21.8699 0.5C23.6473 0.5 25.2166 0.611803 26.0249 0.692538V5.31146H23.3297C22.0056 5.31146 21.0777 5.63698 20.5078 6.33557C19.9572 7.01042 19.8394 7.92153 19.8386 8.84001V8.84042V13.1265C19.8386 13.4026 20.0625 13.6265 20.3386 13.6265H25.4265L24.7766 18.8477H20.3401C20.064 18.8477 19.8401 19.0716 19.8401 19.3477V34.5H14.6072V19.3462C14.6072 19.0701 14.3833 18.8462 14.1072 18.8462H9.52344V13.625H14.1072Z" stroke="white" stroke-linejoin="round"/>
</g>
<defs>
<clipPath id="clip0">
<rect width="35" height="35" fill="white"/>
</clipPath>
</defs>
</svg>
