<svg width="15" height="15" viewBox="0 0 15 15" fill="none" xmlns="http://www.w3.org/2000/svg">
<path fill-rule="evenodd" clip-rule="evenodd" d="M0.387226 1.44212C0.4721 1.27322 0.644964 1.16663 0.833987 1.16663H14.1673C14.359 1.16663 14.5338 1.27619 14.6173 1.44868C14.7009 1.62117 14.6785 1.82624 14.5596 1.97662L9.56928 8.29194V12.5537C9.56928 12.7411 9.46453 12.9127 9.29789 12.9984L6.16064 14.6113C6.00564 14.691 5.82032 14.6842 5.67155 14.5934C5.52278 14.5026 5.43203 14.3409 5.43203 14.1666V8.68701L0.43278 1.96501C0.319977 1.81333 0.302351 1.61101 0.387226 1.44212ZM1.82896 2.16663L6.33323 8.22308C6.39738 8.30934 6.43203 8.41397 6.43203 8.52146V13.3474L8.56928 12.2486V8.11824C8.56928 8.00573 8.60722 7.89651 8.67698 7.80824L13.135 2.16663H1.82896Z" fill="#728DB8"/>
</svg>
