<svg width="15" height="15" viewBox="0 0 15 15" fill="none" xmlns="http://www.w3.org/2000/svg">
<path fill-rule="evenodd" clip-rule="evenodd" d="M0.386493 1.44212C0.471368 1.27322 0.644232 1.16663 0.833255 1.16663H14.1666C14.3582 1.16663 14.533 1.27619 14.6166 1.44868C14.7001 1.62117 14.6777 1.82624 14.5589 1.97662L9.56855 8.29194V12.5537C9.56855 12.7411 9.4638 12.9127 9.29716 12.9984L6.15991 14.6113C6.0049 14.691 5.81959 14.6842 5.67082 14.5934C5.52205 14.5026 5.43129 14.3409 5.43129 14.1666V8.68701L0.432047 1.96501C0.319245 1.81333 0.301619 1.61101 0.386493 1.44212ZM1.82823 2.16663L6.3325 8.22308C6.39665 8.30934 6.43129 8.41397 6.43129 8.52146V13.3474L8.56855 12.2486V8.11824C8.56855 8.00573 8.60649 7.89651 8.67624 7.80824L13.1342 2.16663H1.82823Z" fill="white"/>
</svg>
