<svg width="20" height="20" viewBox="0 0 20 20" fill="none" xmlns="http://www.w3.org/2000/svg">
<path d="M19.0909 0H16.0606C15.5586 0 15.1515 0.407031 15.1515 0.909102C15.1515 1.41117 15.5586 1.8182 16.0606 1.8182H18.1818V9.09094H15.4545C14.9525 9.09094 14.5454 9.49797 14.5454 10C14.5454 10.5021 14.9525 10.9091 15.4545 10.9091H18.1818V18.1819H9.27383V15.4546C9.27383 14.9525 8.86687 14.5455 8.36473 14.5455C7.86273 14.5455 7.45563 14.9525 7.45563 15.4546V18.1819H1.81816V10.9091H7.45563V11.8182C7.45563 12.3203 7.86273 12.7273 8.36473 12.7273C8.86684 12.7273 9.27383 12.3203 9.27383 11.8182V10.9091H11.2121C11.7143 10.9091 12.1212 10.5021 12.1212 10C12.1212 9.49793 11.7143 9.0909 11.2121 9.0909H9.27383V8.1818C9.27383 7.67973 8.86687 7.2727 8.36473 7.2727C7.86273 7.2727 7.45563 7.67973 7.45563 8.1818V9.0909H1.81816V1.81816H7.45563V4.54543C7.45563 5.0475 7.86273 5.45453 8.36473 5.45453C8.86684 5.45453 9.27383 5.0475 9.27383 4.54543V1.81816H11.8182C12.3203 1.81816 12.7273 1.41113 12.7273 0.909063C12.7273 0.407031 12.3203 0 11.8182 0H8.36473H0.909102C0.407109 0 0 0.407031 0 0.909102V10V19.0909C0 19.593 0.407109 20 0.909102 20H8.36473H19.0909C19.593 20 20 19.593 20 19.0909V10V0.909102C20 0.407031 19.593 0 19.0909 0Z" fill="#A1AFC5"/>
</svg>
