<svg width="25" height="25" viewBox="0 0 25 25" fill="none" xmlns="http://www.w3.org/2000/svg">
<path d="M17.6938 22.3021L17.3445 23.73C16.2965 24.1436 15.4594 24.4584 14.8361 24.6749C14.2121 24.892 13.487 25 12.6609 25C11.3923 25 10.4055 24.6892 9.70175 24.0719C8.99797 23.4522 8.64597 22.6669 8.64597 21.7142C8.64597 21.3453 8.67152 20.966 8.72462 20.5795C8.77817 20.1926 8.86331 19.7568 8.97982 19.2697L10.2895 14.6343C10.406 14.1904 10.505 13.7699 10.5843 13.3722C10.6648 12.9769 10.7035 12.6133 10.7035 12.2859C10.7035 11.6939 10.581 11.2799 10.337 11.0471C10.093 10.815 9.62736 10.6971 8.93613 10.6971C8.59758 10.6971 8.24961 10.7513 7.89492 10.8562C7.53867 10.9615 7.23417 11.0632 6.97852 11.1578L7.32872 9.72871C8.18665 9.3794 9.00671 9.08028 9.79115 8.83202C10.5756 8.58309 11.3168 8.45851 12.0179 8.45851C13.2778 8.45851 14.25 8.76301 14.9327 9.372C15.6154 9.98145 15.9566 10.7715 15.9566 11.745C15.9566 11.9465 15.9342 12.3014 15.886 12.8086C15.839 13.317 15.7514 13.7829 15.6237 14.2066L14.3196 18.8233C14.2128 19.1941 14.1166 19.6181 14.0331 20.0951C13.9468 20.569 13.9056 20.9311 13.9056 21.1739C13.9056 21.787 14.0422 22.2055 14.3163 22.428C14.5923 22.6505 15.0678 22.7612 15.7431 22.7612C16.0601 22.7612 16.4209 22.7049 16.8217 22.5945C17.2214 22.484 17.5129 22.387 17.6938 22.3021ZM18.0245 2.91951C18.0245 3.72389 17.7213 4.41086 17.1121 4.97571C16.5045 5.54258 15.7722 5.82625 14.9156 5.82625C14.0564 5.82625 13.3223 5.54258 12.7077 4.97571C12.0943 4.41063 11.7869 3.72389 11.7869 2.91951C11.7869 2.1167 12.0943 1.42861 12.7077 0.856583C13.3212 0.285453 14.0566 0 14.9156 0C15.772 0 16.5045 0.286125 17.1121 0.856583C17.7218 1.42861 18.0245 2.11692 18.0245 2.91951Z" fill="#FF7A00"/>
</svg>
