<svg width="10" height="24" viewBox="0 0 10 24" fill="none" xmlns="http://www.w3.org/2000/svg">
<path d="M6.30095 23.3858C5.35079 23.5378 3.46015 23.9175 2.50007 23.9938C1.6874 24.0584 0.920516 23.6119 0.453027 22.971C-0.015683 22.3302 -0.127997 21.51 0.150269 20.7743L3.9307 10.7972H0.000111514C-0.00324568 8.7183 1.62148 7.18969 3.69951 6.60304C4.69118 6.32301 6.53878 5.93979 7.49992 5.99852C8.07576 6.03367 9.07948 6.38042 9.54697 7.02133C10.0157 7.66217 10.128 8.48228 9.84973 9.21802L6.0693 19.1951H9.99867C9.99943 21.2716 8.43529 23.0444 6.30095 23.3858ZM7.49992 4.79879C6.1192 4.79879 4.99996 3.72443 4.99996 2.39939C4.99996 1.07422 6.1192 0 7.49992 0C8.88065 0 9.99989 1.07422 9.99989 2.39939C9.99989 3.7245 8.88072 4.79879 7.49992 4.79879Z" fill="#FFFEFE"/>
</svg>
