<svg width="25" height="25" viewBox="0 0 25 25" fill="none" xmlns="http://www.w3.org/2000/svg">
<g clip-path="url(#clip0)">
<path d="M23.2839 1.71622C20.9956 -0.572064 17.2857 -0.572064 14.9974 1.71617L10.1003 6.61334C7.73333 8.98038 7.95247 12.7519 10.1003 14.8998C10.4599 15.2594 10.8579 15.5527 11.2781 15.7936L12.1719 14.8998C12.7581 14.3134 12.5518 13.628 12.5412 13.1335C12.4126 13.0422 12.2874 12.9437 12.1719 12.8281C11.0697 11.726 11.0201 9.83668 12.1719 8.68492C12.343 8.51387 16.9652 3.89166 17.069 3.78785C18.2115 2.64532 20.0697 2.64532 21.2122 3.78785C22.3547 4.93038 22.3547 6.78853 21.2122 7.93106L17.9752 11.168C18.0688 11.6859 18.6306 12.9128 18.3416 14.9366C18.3557 14.9228 18.3726 14.9138 18.3867 14.8998L23.2839 10.0026C25.5721 7.71436 25.5721 4.0045 23.2839 1.71622Z" fill="#FF7A00"/>
<path d="M15.2792 9.72095C14.9196 9.36128 14.5216 9.06802 14.1014 8.82715L13.2076 9.72095C12.6213 10.3072 12.8277 10.9926 12.8382 11.4872C12.967 11.5784 13.0921 11.677 13.2076 11.7925C14.3098 12.8947 14.3594 14.7839 13.2076 15.9357C13.0362 16.1071 8.03113 21.1122 7.93098 21.2124C6.78845 22.3549 4.9303 22.3549 3.78777 21.2124C2.64524 20.0698 2.64524 18.2117 3.78777 17.0691L7.40432 13.4526C7.31072 12.9347 6.7489 11.7078 7.03792 9.68398C7.0238 9.69785 7.00681 9.70688 6.99275 9.7209L1.71614 14.9976C-0.572046 17.2859 -0.572046 20.9958 1.71614 23.284C4.00442 25.5722 7.71423 25.5722 10.0025 23.284L15.2792 18.0074C17.6022 15.6843 17.4753 11.917 15.2792 9.72095Z" fill="#FF7A00"/>
</g>
<defs>
<clipPath id="clip0">
<rect width="25" height="25" fill="white"/>
</clipPath>
</defs>
</svg>
