<svg width="25" height="25" viewBox="0 0 25 25" fill="none" xmlns="http://www.w3.org/2000/svg">
<path d="M12.4994 0C7.50693 0 3.44531 4.06162 3.44531 9.054C3.44531 15.2497 11.5478 24.3454 11.8928 24.7295C12.2168 25.0904 12.7825 25.0898 13.106 24.7295C13.4509 24.3454 21.5534 15.2497 21.5534 9.054C21.5533 4.06162 17.4917 0 12.4994 0ZM12.4994 13.6093C9.98755 13.6093 7.94409 11.5658 7.94409 9.054C7.94409 6.54219 9.9876 4.49873 12.4994 4.49873C15.0111 4.49873 17.0546 6.54224 17.0546 9.05405C17.0546 11.5659 15.0111 13.6093 12.4994 13.6093Z" fill="#FF7A00"/>
</svg>
