<svg width="19" height="18" viewBox="0 0 19 18" fill="none" xmlns="http://www.w3.org/2000/svg">
<path fill-rule="evenodd" clip-rule="evenodd" d="M5.74958 1.8H15.2145V16.2H5.74958V14.4H3.96094V16.2V18H5.74958H15.2145H17.0031V16.2V1.8V0H15.2145H5.74958H3.96094V1.8V4.5H5.74958V1.8Z" fill="#FF7A00"/>
<path fill-rule="evenodd" clip-rule="evenodd" d="M12.6756 9.14994C12.671 9.40267 12.561 9.6418 12.3724 9.80884L8.45977 13.2755C8.08905 13.604 7.52394 13.5678 7.19755 13.1947C6.87117 12.8217 6.9071 12.253 7.27782 11.9245L9.41229 10.0333L1.89267 10.0333C1.39875 10.0333 0.998343 9.63039 0.998343 9.13334C0.998343 8.63628 1.39875 8.23334 1.89267 8.23334L9.53842 8.23334L7.25346 6.0531C6.89504 5.71111 6.87997 5.14146 7.21981 4.78076C7.55965 4.42006 8.1257 4.4049 8.48413 4.7469L12.3968 8.48023C12.5791 8.65416 12.6803 8.8972 12.6756 9.14994Z" fill="#FF7A00"/>
</svg>
