<svg width="14" height="15" viewBox="0 0 14 15" fill="none" xmlns="http://www.w3.org/2000/svg">
<path fill-rule="evenodd" clip-rule="evenodd" d="M4.229 1.5H12.1665V13.5H4.229V12H2.729V13.5V15H4.229H12.1665H13.6665V13.5V1.5V0H12.1665H4.229H2.729V1.5V3.75H4.229V1.5Z" fill="#728DB8"/>
<path fill-rule="evenodd" clip-rule="evenodd" d="M10.0414 7.62483C10.0375 7.83544 9.94521 8.03471 9.78711 8.17391L6.50586 11.0628C6.19497 11.3365 5.72105 11.3064 5.44734 10.9955C5.17362 10.6846 5.20376 10.2107 5.51465 9.93696L7.30466 8.36099L0.998535 8.36099C0.584322 8.36099 0.248535 8.0252 0.248535 7.61099C0.248535 7.19678 0.584322 6.86099 0.998535 6.86099L7.41044 6.86099L5.49422 5.04413C5.19364 4.75914 5.181 4.28443 5.466 3.98385C5.751 3.68326 6.2257 3.67063 6.52629 3.95563L9.80754 7.06674C9.9604 7.21167 10.0453 7.41421 10.0414 7.62483Z" fill="#728DB8"/>
</svg>
