<svg width="15" height="15" viewBox="0 0 15 15" fill="none" xmlns="http://www.w3.org/2000/svg">
<g clip-path="url(#clip0)">
<path d="M2.5 1.5H10.4375V3H11.9375V0H1V15H11.9375V12.25H10.4375V13.5H2.5V1.5Z" fill="#728DB8"/>
<path fill-rule="evenodd" clip-rule="evenodd" d="M14.2499 7.60641C14.246 7.81869 14.1523 8.01937 13.992 8.15865L11.2224 10.5661C10.9097 10.8378 10.436 10.8046 10.1643 10.492C9.89254 10.1794 9.92569 9.70568 10.2383 9.43395L11.4939 8.3426L5.00391 8.3426C4.58969 8.3426 4.25391 8.00681 4.25391 7.5926C4.25391 7.17838 4.58969 6.8426 5.00391 6.8426L11.6013 6.8426L10.2178 5.54755C9.9154 5.26448 9.89972 4.78986 10.1828 4.48746C10.4659 4.18506 10.9405 4.16939 11.2429 4.45246L14.0125 7.04505C14.1675 7.19014 14.2538 7.39413 14.2499 7.60641Z" fill="#728DB8"/>
</g>
<defs>
<clipPath id="clip0">
<rect width="15" height="15" fill="white"/>
</clipPath>
</defs>
</svg>
