<svg width="36" height="35" viewBox="0 0 36 35" fill="none" xmlns="http://www.w3.org/2000/svg">
<path d="M7.49902 0.776367V0.887479C7.49902 2.54433 8.84217 3.88748 10.499 3.88748H14.499C16.1559 3.88748 17.499 2.54433 17.499 0.887479V0.776367" stroke="white" stroke-width="1.2"/>
<rect x="0.6" y="0.6" width="23.8" height="33.8" rx="2.4" stroke="white" stroke-width="1.2"/>
<path d="M29.6415 10.8574C30.7951 12.5398 31.4326 14.3874 31.4326 16.3262C31.4326 18.265 30.7951 20.1127 29.6415 21.795" stroke="#F2923E" stroke-width="1.2" stroke-linecap="round"/>
<path d="M26.9997 13.4287C27.8503 14.4175 28.3203 15.5035 28.3203 16.643C28.3203 17.7825 27.8503 18.8685 26.9997 19.8573" stroke="#F2923E" stroke-width="1.2" stroke-linecap="round"/>
<path d="M32.2833 7C33.9804 9.44528 35 12.581 35 16C35 19.419 33.9804 22.5547 32.2833 25" stroke="#F2923E" stroke-width="1.2" stroke-linecap="round"/>
</svg>
