<svg width="160" height="130" viewBox="0 0 160 130" fill="none" xmlns="http://www.w3.org/2000/svg">
<path d="M120 21.5172H84.3236C83.8222 22.975 83.2338 24.4812 82.5707 26H101.092L104.981 41.5408C103.221 42.6006 89.8613 53.3179 81.2836 53.2408V28.7972C80.6684 30.2586 79.2018 32.8228 78.7218 33.6691V53.2426C70.144 53.3197 56.784 42.6006 55.024 41.5426L57.936 29.9054C57.3973 28.8313 56.88 27.7429 56.3911 26.6509L52.9653 40.3412C48.5582 37.856 44.0498 35.9912 39.4222 35.8961L44.1724 26.0036H56.1049C55.4436 24.4866 54.8427 22.9768 54.3431 21.5208H40L0 104L44.8 84.9644L80 100.826L115.2 84.9626L160 104L120 21.5172ZM38.1316 38.5768C42.3289 38.593 47.8187 40.5241 52.2756 43.0739L48.3716 58.6811C47.4311 58.5143 44.7129 58.2956 44.3342 58.2956C37.9751 58.3207 31.3102 61.0516 25.5538 64.7597L38.1316 38.5768ZM43.0436 79.3161L12.8 91.3102L23.1502 69.7589C29.3369 64.9659 37.3209 61.0139 44.3342 61.048C44.6773 61.0462 46.9351 61.1986 47.7191 61.3152L43.0436 79.3161ZM78.7182 93.9084L45.6089 78.9862L49.9627 61.7814C59.9982 64.3778 67.7031 73.1676 78.7182 75.764V93.9084ZM78.7182 72.9739C68.9778 70.6268 61.3493 61.9643 50.6187 59.1581L54.3413 44.2861C55.8649 45.2167 57.4009 46.1975 58.9351 47.1945C65.5182 51.4262 71.4009 56.0166 78.7182 56.0954V72.9739ZM134.448 64.7597C128.692 61.0516 122.027 58.3189 115.668 58.2956C115.289 58.2956 112.569 58.5143 111.63 58.6811L107.726 43.0739C112.185 40.5241 117.675 38.5912 121.872 38.5768L134.448 64.7597ZM103.449 26H115.828L120.581 35.8926C115.952 35.9894 111.442 37.8542 107.036 40.3377L103.449 26ZM81.2818 56.0954C88.5991 56.0166 94.48 51.4262 101.068 47.1945C102.599 46.1975 104.137 45.2149 105.66 44.2861L109.381 59.1581C98.6524 61.9643 91.0222 70.6268 81.2818 72.9739V56.0954ZM81.2818 93.9084V75.764C92.2969 73.1676 100.004 64.3778 110.037 61.7814L114.391 78.9862L81.2818 93.9084ZM112.281 61.3152C113.065 61.1986 115.323 61.0462 115.666 61.048C122.676 61.0139 130.661 64.9677 136.85 69.7589L147.2 91.3102L116.956 79.3179L112.281 61.3152ZM69.3333 39.4483C72.2009 39.4483 80.1938 24.8255 81.9538 16.9646C82.4089 15.6663 82.6649 14.2821 82.6649 12.8368C82.6667 5.75048 76.7004 0 69.3333 0C61.9698 0 56 5.75048 56 12.8386C56 14.2839 56.2578 15.6681 56.7129 16.9663C58.4782 24.8255 66.4658 39.4483 69.3333 39.4483ZM69.3333 7.62069C72.2827 7.62069 74.6667 10.0252 74.6667 13C74.6667 15.9712 72.2809 18.3793 69.3333 18.3793C66.3893 18.3793 64 15.9712 64 13C64 10.0252 66.3893 7.62069 69.3333 7.62069Z" fill="#728DB8"/>
</svg>
