<svg width="20" height="20" viewBox="0 0 20 20" fill="none" xmlns="http://www.w3.org/2000/svg">
<rect x="1" y="1" width="18" height="18" stroke="#A1AFC5" stroke-width="2"/>
<rect x="9" width="2" height="3" fill="white"/>
<rect x="9" y="17" width="2" height="3" fill="white"/>
<rect x="17" y="9" width="3" height="2" fill="white"/>
<rect y="9" width="3" height="2" fill="white"/>
<g clip-path="url(#clip0)">
<path d="M12.6321 11.1317C12.5818 10.9616 12.5209 10.8135 12.4493 10.6878C12.3778 10.562 12.2753 10.4393 12.1418 10.3192C12.0084 10.1992 11.8883 10.1026 11.7819 10.0291C11.6756 9.95559 11.5295 9.87338 11.3437 9.7824C11.1581 9.69143 11.0111 9.62374 10.9028 9.57922C10.7944 9.53476 10.6377 9.47382 10.4326 9.39643C10.2507 9.32683 10.1153 9.27361 10.0263 9.23688C9.9373 9.20011 9.82029 9.1479 9.67519 9.08015C9.53015 9.0125 9.4218 8.95249 9.35021 8.90029C9.27864 8.84809 9.20224 8.78426 9.12097 8.70882C9.0397 8.63339 8.98264 8.55309 8.94973 8.46798C8.9169 8.38285 8.90044 8.28997 8.90044 8.18937C8.90044 7.92632 9.01647 7.71152 9.24861 7.5452C9.48077 7.37888 9.78067 7.29567 10.1483 7.29567C10.3107 7.29567 10.4763 7.31789 10.6445 7.36243C10.8127 7.40697 10.9568 7.45714 11.0768 7.51328C11.1968 7.56943 11.3099 7.63135 11.4164 7.69902C11.5228 7.76675 11.5982 7.81798 11.6427 7.8528C11.6872 7.88764 11.7154 7.91083 11.7269 7.92246C11.7773 7.96115 11.8294 7.97466 11.8836 7.9631C11.9416 7.95924 11.9861 7.92824 12.0171 7.87026L12.4873 7.02292C12.5337 6.94557 12.5241 6.87204 12.4583 6.80236C12.4351 6.77914 12.4062 6.75209 12.3711 6.72111C12.3364 6.69013 12.2609 6.63404 12.1447 6.55275C12.0287 6.47152 11.9058 6.39897 11.7763 6.33512C11.6466 6.27134 11.4783 6.20649 11.2713 6.14075C11.0644 6.07491 10.8505 6.03045 10.6299 6.00726V4.98576C10.6299 4.93163 10.6125 4.88711 10.5778 4.85227C10.543 4.81751 10.4985 4.80005 10.4443 4.80005H9.6607C9.61041 4.80005 9.56688 4.8184 9.53013 4.85518C9.49338 4.89195 9.475 4.93545 9.475 4.98576V6.03043C8.86752 6.14646 8.37421 6.4057 7.99503 6.80809C7.6159 7.2105 7.42626 7.67859 7.42626 8.21258C7.42626 8.3712 7.44277 8.52209 7.47566 8.66518C7.50851 8.80839 7.54916 8.93704 7.59754 9.05116C7.64588 9.16537 7.71459 9.27753 7.80357 9.38783C7.89254 9.49809 7.97672 9.5929 8.05602 9.67218C8.13536 9.75144 8.23887 9.83368 8.3665 9.91878C8.49422 10.0039 8.60353 10.0727 8.69447 10.1249C8.78544 10.1769 8.90633 10.2371 9.05718 10.3046C9.20808 10.3724 9.3271 10.4236 9.41416 10.4585C9.50122 10.4933 9.62018 10.5417 9.77114 10.6035C9.98005 10.6847 10.1348 10.7476 10.2354 10.7921C10.3361 10.8367 10.4637 10.8986 10.6186 10.9779C10.7733 11.0571 10.8864 11.1297 10.9581 11.1955C11.0296 11.2613 11.0944 11.3425 11.1525 11.4392C11.2106 11.5359 11.2397 11.6385 11.2397 11.7469C11.2397 12.0525 11.1207 12.2885 10.8827 12.4547C10.6447 12.6212 10.369 12.7043 10.0556 12.7043C9.9126 12.7043 9.76933 12.6889 9.62622 12.658C9.12323 12.5573 8.65315 12.3155 8.21594 11.9324L8.20433 11.9208C8.16949 11.8784 8.12304 11.861 8.06506 11.8687C8.00314 11.8765 7.95863 11.8997 7.93157 11.9385L7.33377 12.7219C7.27571 12.7993 7.27964 12.8786 7.3454 12.9598C7.36477 12.9831 7.39862 13.018 7.44695 13.0643C7.49542 13.1108 7.58539 13.1833 7.71687 13.2821C7.84839 13.3808 7.99156 13.4736 8.14635 13.5607C8.30113 13.6477 8.49746 13.7338 8.73546 13.819C8.97345 13.904 9.22005 13.9639 9.47543 13.9987V15.0143C9.47543 15.0647 9.49383 15.1082 9.53056 15.145C9.56733 15.1818 9.61083 15.2001 9.66112 15.2001H10.4447C10.4989 15.2001 10.5435 15.1827 10.5782 15.1479C10.613 15.1132 10.6303 15.0686 10.6303 15.0144V13.9987C11.2456 13.8981 11.7457 13.6341 12.1307 13.2065C12.5156 12.779 12.7082 12.2692 12.7082 11.6773C12.708 11.4839 12.6829 11.302 12.6321 11.1317Z" fill="#A1AFC5"/>
</g>
<defs>
<clipPath id="clip0">
<rect width="10.4" height="10.4" fill="white" transform="translate(4.7998 4.80005)"/>
</clipPath>
</defs>
</svg>
