<svg width="25" height="25" viewBox="0 0 25 25" fill="none" xmlns="http://www.w3.org/2000/svg">
<rect x="1.5" y="1.5" width="22" height="22" stroke="#FF7A00" stroke-width="3"/>
<rect x="11" width="3" height="3" fill="white"/>
<rect x="11" y="22" width="3" height="3" fill="white"/>
<rect x="22" y="11" width="3" height="3" fill="white"/>
<rect y="11" width="3" height="3" fill="white"/>
<g clip-path="url(#clip0)">
<path d="M15.7911 13.9145C15.7283 13.7019 15.6521 13.5169 15.5626 13.3597C15.4732 13.2025 15.3452 13.049 15.1782 12.899C15.0114 12.749 14.8614 12.6282 14.7284 12.5363C14.5954 12.4444 14.4128 12.3417 14.1806 12.2279C13.9486 12.1142 13.7648 12.0296 13.6295 11.974C13.494 11.9184 13.298 11.8422 13.0417 11.7455C12.8144 11.6585 12.6452 11.592 12.5338 11.546C12.4226 11.5001 12.2763 11.4348 12.095 11.3501C11.9137 11.2656 11.7782 11.1906 11.6887 11.1253C11.5993 11.0601 11.5038 10.9803 11.4022 10.886C11.3006 10.7917 11.2293 10.6913 11.1881 10.5849C11.1471 10.4785 11.1265 10.3624 11.1265 10.2367C11.1265 9.90785 11.2716 9.63934 11.5617 9.43144C11.8519 9.22354 12.2268 9.11954 12.6863 9.11954C12.8893 9.11954 13.0963 9.14731 13.3066 9.20298C13.5168 9.25865 13.697 9.32137 13.8469 9.39155C13.997 9.46173 14.1384 9.53913 14.2714 9.62372C14.4045 9.70838 14.4987 9.77241 14.5544 9.81594C14.61 9.85949 14.6453 9.88849 14.6596 9.90302C14.7226 9.95138 14.7877 9.96827 14.8554 9.95382C14.928 9.94899 14.9836 9.91024 15.0224 9.83777L15.6101 8.77859C15.6681 8.6819 15.6562 8.59 15.5739 8.50289C15.5448 8.47387 15.5087 8.44005 15.4648 8.40133C15.4214 8.3626 15.3271 8.2925 15.1819 8.19088C15.0368 8.08935 14.8833 7.99866 14.7214 7.91885C14.5593 7.83911 14.3488 7.75805 14.09 7.67588C13.8314 7.59358 13.5641 7.538 13.2884 7.50901V6.23214C13.2884 6.16448 13.2667 6.10883 13.2233 6.06528C13.1798 6.02183 13.1241 6 13.0563 6H12.0769C12.014 6 11.9596 6.02295 11.9136 6.06891C11.8677 6.11488 11.8447 6.16925 11.8447 6.23214V7.53798C11.0854 7.68302 10.4687 8.00707 9.99477 8.51006C9.52085 9.01307 9.2838 9.59818 9.2838 10.2657C9.2838 10.4639 9.30444 10.6526 9.34555 10.8314C9.38661 11.0104 9.43743 11.1712 9.49791 11.3139C9.55833 11.4567 9.64422 11.5969 9.75544 11.7347C9.86665 11.8726 9.97188 11.9911 10.071 12.0902C10.1702 12.1892 10.2996 12.2921 10.4591 12.3984C10.6188 12.5049 10.7554 12.5908 10.8691 12.656C10.9828 12.7211 11.1339 12.7963 11.3225 12.8807C11.5111 12.9654 11.6599 13.0294 11.7687 13.0731C11.8775 13.1165 12.0262 13.1771 12.2149 13.2543C12.476 13.3559 12.6695 13.4345 12.7953 13.4901C12.9211 13.5458 13.0806 13.6231 13.2742 13.7223C13.4676 13.8213 13.609 13.9121 13.6986 13.9943C13.788 14.0766 13.869 14.1781 13.9416 14.299C14.0142 14.4199 14.0506 14.548 14.0506 14.6835C14.0506 15.0656 13.9018 15.3606 13.6043 15.5684C13.3069 15.7764 12.9622 15.8804 12.5705 15.8804C12.3917 15.8804 12.2126 15.8611 12.0338 15.8225C11.405 15.6966 10.8174 15.3943 10.2709 14.9155L10.2564 14.901C10.2128 14.8479 10.1548 14.8261 10.0823 14.8359C10.0049 14.8455 9.94926 14.8746 9.91544 14.923L9.16819 15.9023C9.09562 15.999 9.10052 16.0982 9.18272 16.1997C9.20694 16.2288 9.24925 16.2724 9.30967 16.3303C9.37025 16.3885 9.48271 16.479 9.64706 16.6026C9.81146 16.726 9.99042 16.8419 10.1839 16.9509C10.3774 17.0596 10.6228 17.1672 10.9203 17.2736C11.2178 17.3799 11.526 17.4548 11.8453 17.4983V18.7679C11.8453 18.8309 11.8683 18.8852 11.9142 18.9312C11.9601 18.9772 12.0145 19.0001 12.0774 19.0001H13.0568C13.1247 19.0001 13.1803 18.9784 13.2238 18.9349C13.2673 18.8914 13.2889 18.8358 13.2889 18.7679V17.4984C14.058 17.3726 14.6831 17.0425 15.1643 16.5081C15.6455 15.9737 15.8862 15.3364 15.8862 14.5965C15.8859 14.3548 15.8546 14.1275 15.7911 13.9145Z" fill="#FF7A00"/>
</g>
<defs>
<clipPath id="clip0">
<rect width="13" height="13" fill="white" transform="translate(6 6)"/>
</clipPath>
</defs>
</svg>
