<svg width="25" height="25" viewBox="0 0 25 25" fill="none" xmlns="http://www.w3.org/2000/svg">
<g clip-path="url(#clip0)">
<path d="M24.6593 12.6876L13.2009 2.27097C13.0092 2.09661 12.7593 2 12.5001 2C12.241 2 11.9911 2.09661 11.7994 2.27097L0.341035 12.6876C0.185438 12.8291 0.0762836 13.0143 0.0279244 13.2189C-0.0204348 13.4235 -0.0057347 13.638 0.0700918 13.8341C0.145918 14.0302 0.279321 14.1988 0.452759 14.3177C0.626197 14.4366 0.83155 14.5002 1.04182 14.5001H3.12515V22.8335C3.12515 23.1097 3.2349 23.3747 3.43025 23.57C3.6256 23.7654 3.89055 23.8751 4.16682 23.8751H20.8335C21.1097 23.8751 21.3747 23.7654 21.5701 23.57C21.7654 23.3747 21.8751 23.1097 21.8751 22.8335V14.5001H23.9585C24.1687 14.5002 24.3741 14.4366 24.5475 14.3177C24.721 14.1988 24.8544 14.0302 24.9302 13.8341C25.006 13.638 25.0207 13.4235 24.9724 13.2189C24.924 13.0143 24.8149 12.8291 24.6593 12.6876ZM15.6251 11.3751H12.5001C12.2239 11.3751 11.9589 11.4849 11.7636 11.6802C11.5682 11.8756 11.4585 12.1405 11.4585 12.4168C11.4585 12.6931 11.5682 12.958 11.7636 13.1534C11.9589 13.3487 12.2239 13.4585 12.5001 13.4585C13.2371 13.4588 13.9502 13.7195 14.5136 14.1946C15.0769 14.6697 15.4543 15.3287 15.5789 16.055C15.7035 16.7813 15.5674 17.5283 15.1947 18.1641C14.8219 18.7998 14.2365 19.2834 13.5418 19.5293V20.7501H11.4585V19.7085H9.37515V17.6251H12.5001C12.7764 17.6251 13.0414 17.5154 13.2367 17.32C13.4321 17.1247 13.5418 16.8597 13.5418 16.5835C13.5418 16.3072 13.4321 16.0422 13.2367 15.8469C13.0414 15.6515 12.7764 15.5418 12.5001 15.5418C11.7632 15.5415 11.0501 15.2808 10.4867 14.8057C9.92336 14.3305 9.54605 13.6716 9.42142 12.9453C9.29679 12.2189 9.43286 11.4719 9.80561 10.8362C10.1784 10.2005 10.7638 9.71692 11.4585 9.47097V8.25014H13.5418V9.2918H15.6251V11.3751Z" fill="#FF7A00"/>
</g>
<defs>
<clipPath id="clip0">
<rect width="25" height="25" fill="white"/>
</clipPath>
</defs>
</svg>
