<svg width="25" height="25" viewBox="0 0 25 25" fill="none" xmlns="http://www.w3.org/2000/svg">
<path d="M23.8636 0H20.0757C19.4482 0 18.9394 0.508789 18.9394 1.13638C18.9394 1.76396 19.4482 2.27275 20.0757 2.27275H22.7272V11.3637H19.3182C18.6907 11.3637 18.1818 11.8725 18.1818 12.5C18.1818 13.1276 18.6907 13.6364 19.3182 13.6364H22.7272V22.7273H11.5923V19.3183C11.5923 18.6907 11.0836 18.1819 10.4559 18.1819C9.82842 18.1819 9.31953 18.6907 9.31953 19.3183V22.7273H2.27271V13.6364H9.31953V14.7728C9.31953 15.4003 9.82842 15.9091 10.4559 15.9091C11.0835 15.9091 11.5923 15.4003 11.5923 14.7728V13.6364H14.0152C14.6428 13.6364 15.1516 13.1276 15.1516 12.5C15.1516 11.8724 14.6429 11.3636 14.0152 11.3636H11.5923V10.2272C11.5923 9.59966 11.0836 9.09087 10.4559 9.09087C9.82842 9.09087 9.31953 9.59966 9.31953 10.2272V11.3636H2.27271V2.27271H9.31953V5.68179C9.31953 6.30937 9.82842 6.81816 10.4559 6.81816C11.0835 6.81816 11.5923 6.30937 11.5923 5.68179V2.27271H14.7728C15.4004 2.27271 15.9091 1.76392 15.9091 1.13633C15.9091 0.508789 15.4004 0 14.7727 0H10.4559H1.13638C0.508887 0 0 0.508789 0 1.13638V12.5V23.8636C0 24.4912 0.508887 25 1.13638 25H10.4559H23.8636C24.4913 25 25 24.4912 25 23.8636V12.5V1.13638C25 0.508789 24.4913 0 23.8636 0Z" fill="#FF7A00"/>
</svg>
