<svg width="25" height="25" viewBox="0 0 25 25" fill="none" xmlns="http://www.w3.org/2000/svg">
<path d="M23.5352 19.0918H1.46484C0.655811 19.0918 0 19.7476 0 20.5566C0 21.3656 0.655811 22.0215 1.46484 22.0215H23.5352C24.3442 22.0215 25 21.3656 25 20.5566C25 19.7476 24.3442 19.0918 23.5352 19.0918Z" fill="#FF7A00"/>
<path d="M19.0938 6.65566V9.57031C19.0938 9.97515 18.7662 10.3027 18.3613 10.3027C17.9565 10.3027 17.6289 9.97515 17.6289 9.57031V5.71641C17.1606 5.46865 16.6694 5.26069 16.1641 5.08179V11.0352C16.1641 11.44 15.8365 11.7676 15.4316 11.7676C15.0268 11.7676 14.6992 11.44 14.6992 11.0352V3.71094C14.6992 3.30684 14.3709 2.97852 13.9668 2.97852H11.0371C10.633 2.97852 10.3047 3.30684 10.3047 3.71094V11.0352C10.3047 11.44 9.9771 11.7676 9.57227 11.7676C9.16743 11.7676 8.83984 11.44 8.83984 11.0352V5.08184C8.33452 5.26074 7.84331 5.4687 7.375 5.71645V9.57031C7.375 9.97515 7.04741 10.3027 6.64258 10.3027C6.23774 10.3027 5.91016 9.97515 5.91016 9.57031V6.65566C3.24609 8.66035 1.51562 11.8388 1.51562 15.4297V17.627H23.4883V15.4297C23.4883 11.8388 21.7578 8.66035 19.0938 6.65566Z" fill="#FF7A00"/>
</svg>
