<svg width="15" height="15" viewBox="0 0 15 15" fill="none" xmlns="http://www.w3.org/2000/svg">
<g clip-path="url(#clip0)">
<path fill-rule="evenodd" clip-rule="evenodd" d="M6.61765 11.7353C9.44405 11.7353 11.7353 9.44405 11.7353 6.61765C11.7353 3.79125 9.44405 1.5 6.61765 1.5C3.79125 1.5 1.5 3.79125 1.5 6.61765C1.5 9.44405 3.79125 11.7353 6.61765 11.7353ZM6.61765 13.2353C10.2725 13.2353 13.2353 10.2725 13.2353 6.61765C13.2353 2.96282 10.2725 0 6.61765 0C2.96282 0 0 2.96282 0 6.61765C0 10.2725 2.96282 13.2353 6.61765 13.2353Z" fill="white"/>
<path fill-rule="evenodd" clip-rule="evenodd" d="M10.6494 10.4695C10.9423 10.1766 11.4171 10.1766 11.71 10.4695L14.6494 13.4089C14.9422 13.7018 14.9422 14.1766 14.6494 14.4695C14.3565 14.7624 13.8816 14.7624 13.5887 14.4695L10.6494 11.5302C10.3565 11.2373 10.3565 10.7624 10.6494 10.4695Z" fill="white"/>
</g>
<defs>
<clipPath id="clip0">
<rect width="15" height="15" fill="white"/>
</clipPath>
</defs>
</svg>
