<svg width="25" height="25" viewBox="0 0 25 25" fill="none" xmlns="http://www.w3.org/2000/svg">
<g clip-path="url(#clip0)">
<path d="M20.625 14.9999C19.2197 14.9999 17.9806 15.6778 17.1796 16.7109L8.71646 13.4559C8.72501 13.3447 8.74997 13.2383 8.74997 13.125C8.74997 12.9147 8.71669 12.7134 8.68786 12.511L17.3603 8.50788C18.1626 9.41532 19.3216 10 20.6249 10C23.0371 10 24.9999 8.03714 24.9999 5.62501C24.9999 3.21289 23.0371 1.25 20.6249 1.25C18.2128 1.25 16.25 3.21283 16.25 5.62495C16.25 5.83525 16.2832 6.03657 16.3121 6.23896L7.63968 10.2421C6.83736 9.33464 5.67837 8.74993 4.37502 8.74993C1.96289 8.74993 0 10.7128 0 13.1249C0 15.5371 1.96289 17.5 4.37502 17.5C5.78027 17.5 7.01935 16.8221 7.82038 15.789L16.2835 19.044C16.275 19.1552 16.25 19.2616 16.25 19.3749C16.25 21.787 18.2129 23.7499 20.625 23.7499C23.0372 23.7499 25.0001 21.787 25.0001 19.3749C25 16.9628 23.0371 14.9999 20.625 14.9999Z" fill="#FF7A00"/>
</g>
<defs>
<clipPath id="clip0">
<rect width="25" height="25" fill="white"/>
</clipPath>
</defs>
</svg>
