<svg width="25" height="25" viewBox="0 0 25 25" fill="none" xmlns="http://www.w3.org/2000/svg">
<g clip-path="url(#clip0)">
<path d="M23.9582 18.1942H6.80571V1.0417C6.80571 0.466392 6.33947 0 5.76421 0H1.0416C0.466235 0 0 0.466392 0 1.0417V2.08341H1.52735C1.75774 2.08341 1.94414 2.2697 1.94414 2.50005C1.94414 2.73039 1.75774 2.91669 1.52735 2.91669H0V5.08343H1.52735C1.75774 5.08343 1.94414 5.26983 1.94414 5.50007C1.94414 5.73042 1.75774 5.91671 1.52735 5.91671H0V8.08351H1.52735C1.75774 8.08351 1.94414 8.26986 1.94414 8.50015C1.94414 8.73039 1.75774 8.91684 1.52735 8.91684H0V11.0832H1.52735C1.75774 11.0832 1.94414 11.2696 1.94414 11.4999C1.94414 11.7301 1.75774 11.9165 1.52735 11.9165H0V14.0833H1.52735C1.75774 14.0833 1.94414 14.2696 1.94414 14.4999C1.94414 14.7303 1.75774 14.9166 1.52735 14.9166H0V17.0833H1.52735C1.75774 17.0833 1.94414 17.2697 1.94414 17.5001C1.94414 17.7303 1.75774 17.9167 1.52735 17.9167H0V18.1941V23.9584C0 24.5337 0.466235 25 1.0416 25H6.80571H7.08335V23.4725C7.08335 23.2423 7.26974 23.0559 7.49983 23.0559C7.73022 23.0559 7.91662 23.2423 7.91662 23.4725V25H10.083V23.4725C10.083 23.2423 10.2694 23.0559 10.4995 23.0559C10.7298 23.0559 10.9163 23.2423 10.9163 23.4725V25H13.0834V23.4725C13.0834 23.2423 13.2698 23.0559 13.5002 23.0559C13.7305 23.0559 13.9168 23.2423 13.9168 23.4725V25H16.0831V23.4725C16.0831 23.2423 16.2695 23.0559 16.4999 23.0559C16.7302 23.0559 16.9164 23.2423 16.9164 23.4725V25H19.0838V23.4725C19.0838 23.2423 19.2699 23.0559 19.5002 23.0559C19.7306 23.0559 19.917 23.2423 19.917 23.4725V25H22.0834V23.4725C22.0834 23.2423 22.2696 23.0559 22.4999 23.0559C22.7302 23.0559 22.9167 23.2423 22.9167 23.4725V25H23.9583C24.5336 25 25.0001 24.5337 25.0001 23.9588V19.2355C25 18.6606 24.5335 18.1942 23.9582 18.1942ZM3.42922 22.2914C2.87745 22.2914 2.43062 21.8442 2.43062 21.2928C2.43062 20.7414 2.87745 20.2942 3.42922 20.2942C3.9811 20.2942 4.42782 20.7415 4.42782 21.2928C4.42782 21.8441 3.9811 22.2914 3.42922 22.2914Z" fill="#FF7A00"/>
</g>
<defs>
<clipPath id="clip0">
<rect width="25" height="25" fill="white"/>
</clipPath>
</defs>
</svg>
