<svg width="7" height="28" viewBox="0 0 7 28" fill="none" xmlns="http://www.w3.org/2000/svg">
<path d="M4.6901 0H2.30915C1.32296 0 0.523438 0.799524 0.523438 1.78571V4.16667C0.523438 5.15286 1.32296 5.95238 2.30915 5.95238H4.6901C5.6763 5.95238 6.47582 5.15286 6.47582 4.16667V1.78571C6.47582 0.799524 5.6763 0 4.6901 0Z" fill="white"/>
<path d="M4.6901 10.9521H2.30915C1.32296 10.9521 0.523438 11.7517 0.523438 12.7379V15.1188C0.523438 16.105 1.32296 16.9045 2.30915 16.9045H4.6901C5.6763 16.9045 6.47582 16.105 6.47582 15.1188V12.7379C6.47582 11.7517 5.6763 10.9521 4.6901 10.9521Z" fill="white"/>
<path d="M4.6901 21.9043H2.30915C1.32296 21.9043 0.523438 22.7038 0.523438 23.69V26.071C0.523438 27.0572 1.32296 27.8567 2.30915 27.8567H4.6901C5.6763 27.8567 6.47582 27.0572 6.47582 26.071V23.69C6.47582 22.7038 5.6763 21.9043 4.6901 21.9043Z" fill="white"/>
</svg>
