<svg width="25" height="25" viewBox="0 0 25 25" fill="none" xmlns="http://www.w3.org/2000/svg">
<path d="M9.04271 25V20.3586H15.961V25H21.1748V0H3.82812V25H9.04271ZM15.961 2.29663H18.879V5.21458H15.961V2.29663ZM15.961 6.53856H18.879V9.4573H15.961V6.53856ZM15.961 10.7813H18.879V13.6984H15.961V10.7813ZM15.961 15.0224H18.879V17.942H15.961V15.0224ZM11.0433 2.29663H13.962V5.21458H11.0433V2.29663ZM11.0433 6.53856H13.962V9.4573H11.0433V6.53856ZM11.0433 10.7813H13.962V13.6984H11.0433V10.7813ZM11.0433 15.0224H13.962V17.942H11.0433V15.0224ZM6.12554 2.29663H9.0435V5.21458H6.12554V2.29663ZM6.12554 6.53856H9.0435V9.4573H6.12554V6.53856ZM6.12554 10.7813H9.0435V13.6984H6.12554V10.7813ZM6.12554 15.0224H9.0435V17.942H6.12554V15.0224Z" fill="#FF7A00"/>
</svg>
