<svg width="18" height="18" viewBox="0 0 18 18" fill="none" xmlns="http://www.w3.org/2000/svg">
<g clip-path="url(#clip0)">
<path d="M11.2996 6.76415L11.2997 6.7641C11.9738 6.09002 12.3061 5.28771 12.3061 4.33519C12.3061 3.3832 11.9738 2.58076 11.2996 1.90638C11.2996 1.90633 11.2995 1.90627 11.2995 1.90622M11.2996 6.76415L11.2995 1.90622M11.2996 6.76415C10.6256 7.4383 9.82304 7.77065 8.87062 7.77065M11.2996 6.76415L8.87062 7.77065M11.2995 1.90622C10.6252 1.23228 9.82279 0.9 8.87062 0.9C7.9181 0.9 7.11579 1.23233 6.4417 1.90641C5.76757 2.58054 5.43516 3.38302 5.43516 4.33519C5.43516 5.28763 5.76757 6.09005 6.44174 6.76414L11.2995 1.90622ZM8.87062 7.77065C7.91863 7.77065 7.11611 7.43826 6.44179 6.76419L8.87062 7.77065Z" stroke="#FF7A00" stroke-width="1.8"/>
<path d="M15.5598 13.9042L15.5597 13.9034C15.538 13.5902 15.4935 13.2402 15.4259 12.8629L15.5598 13.9042ZM15.5598 13.9042C15.5823 14.2248 15.5939 14.5615 15.594 14.9044L15.5598 13.9042ZM15.1749 11.8348L15.1748 11.8346C15.0781 11.5325 14.9454 11.2305 14.7795 10.9386C14.6149 10.649 14.4286 10.4095 14.231 10.2204L14.2309 10.2203C14.0432 10.0407 13.8022 9.88545 13.5034 9.76698L15.1749 11.8348ZM15.1749 11.8348C15.274 12.1443 15.359 12.49 15.4259 12.8625L15.1749 11.8348ZM3.19066 10.9383L3.19061 10.9384C3.02475 11.2303 2.89203 11.5322 2.79522 11.8346L3.19066 10.9383ZM3.19066 10.9383C3.3547 10.6494 3.54097 10.4099 3.73889 10.2204L3.19066 10.9383ZM2.4104 13.9037L2.41038 13.9039C2.38799 14.2266 2.37656 14.5633 2.37656 14.9045C2.37656 15.6393 2.60224 16.1494 2.98468 16.5138L2.4104 13.9037ZM2.4104 13.9037C2.43212 13.5896 2.47667 13.2395 2.54423 12.8629L2.4104 13.9037ZM14.9857 16.5138L14.9858 16.5138C15.368 16.1501 15.5939 15.6401 15.594 14.9048L14.9857 16.5138ZM14.9857 16.5138C14.5987 16.8822 14.0648 17.1002 13.3188 17.1002H4.65174C3.90593 17.1002 3.37187 16.8821 2.98496 16.5141L14.9857 16.5138ZM6.38997 10.2259C6.71314 10.4321 7.11077 10.6012 7.54625 10.7418L3.73907 10.2203C3.92705 10.0404 4.16804 9.88527 4.4664 9.76715L4.46654 9.76709C4.73376 9.66125 5.04209 9.60001 5.38979 9.59514C5.43038 9.61404 5.50699 9.65582 5.64781 9.74761L5.64799 9.74773C5.86509 9.88917 6.11457 10.0499 6.38937 10.2255L6.38997 10.2259ZM12.3215 9.74784C12.4626 9.656 12.5393 9.61421 12.58 9.59528C12.9275 9.60014 13.2359 9.66123 13.5032 9.76689L12.3215 9.74784ZM2.54425 12.8628C2.6111 12.4903 2.69609 12.1446 2.79514 11.8349L2.54425 12.8628Z" stroke="#FF7A00" stroke-width="1.8"/>
</g>
<defs>
<clipPath id="clip0">
<rect width="17.9999" height="18" fill="white"/>
</clipPath>
</defs>
</svg>
