<svg width="18" height="18" viewBox="0 0 18 18" fill="none" xmlns="http://www.w3.org/2000/svg">
<path fill-rule="evenodd" clip-rule="evenodd" d="M12.0026 4.26987C12.0026 5.68916 10.852 6.83973 9.43273 6.83973C8.01343 6.83973 6.86286 5.68916 6.86286 4.26987C6.86286 2.85057 8.01343 1.7 9.43273 1.7C10.852 1.7 12.0026 2.85057 12.0026 4.26987ZM13.7026 4.26987C13.7026 6.62805 11.7909 8.53973 9.43273 8.53973C7.07455 8.53973 5.16286 6.62805 5.16286 4.26987C5.16286 1.91168 7.07455 0 9.43273 0C11.7909 0 13.7026 1.91168 13.7026 4.26987ZM3.7 13.2557C3.7 11.9441 4.53087 10.8232 5.69616 10.3961C6.75417 11.2677 8.11283 11.7928 9.59087 11.7928C11.0195 11.7928 12.3369 11.3021 13.3789 10.482C14.4338 10.9611 15.1655 12.0247 15.1655 13.2557V16.3H3.7V13.2557ZM6.58938 8.92037C6.34626 8.69611 6.02422 8.554 5.70149 8.62638C3.58294 9.10154 2 10.9938 2 13.2557V16.4186C2 17.292 2.70803 18 3.58143 18H15.284C16.1574 18 16.8655 17.292 16.8655 16.4186V13.2557C16.8655 11.1041 15.4332 9.28702 13.47 8.7059C13.1364 8.60715 12.7906 8.74534 12.5305 8.97641C11.7486 9.67098 10.719 10.0928 9.59087 10.0928C8.43273 10.0928 7.37844 9.64822 6.58938 8.92037Z" fill="#FF7A00"/>
</svg>
