<svg width="25" height="25" viewBox="0 0 25 25" fill="none" xmlns="http://www.w3.org/2000/svg">
<path d="M12.4981 12.2266C15.2776 12.2266 17.5311 9.48964 17.5311 6.11336C17.5311 2.737 16.7913 0 12.4981 0C8.20484 0 7.46484 2.737 7.46484 6.11336C7.46484 9.48964 9.71834 12.2266 12.4981 12.2266Z" fill="#FF7A00"/>
<path d="M2.99318 21.5609C2.99232 21.355 2.99146 21.5029 2.99318 21.5609V21.5609Z" fill="#FF7A00"/>
<path d="M22.0039 21.7217C22.0066 21.6653 22.0048 21.3307 22.0039 21.7217V21.7217Z" fill="#FF7A00"/>
<path d="M21.9941 21.3139C21.9009 15.4323 21.1328 13.7564 15.2547 12.6956C15.2547 12.6956 14.4273 13.7499 12.4987 13.7499C10.5701 13.7499 9.74255 12.6956 9.74255 12.6956C3.92862 13.7448 3.11376 15.3959 3.00662 21.1228C2.99783 21.5905 2.99376 21.6151 2.99219 21.5608C2.99254 21.6625 2.99297 21.8506 2.99297 22.1787C2.99297 22.1787 4.3924 24.9998 12.4987 24.9998C20.6048 24.9998 22.0044 22.1787 22.0044 22.1787C22.0044 21.9679 22.0045 21.8213 22.0048 21.7216C22.0032 21.7552 22 21.6901 21.9941 21.3139Z" fill="#FF7A00"/>
</svg>
