<svg width="25" height="25" viewBox="0 0 25 25" fill="none" xmlns="http://www.w3.org/2000/svg">
<path d="M22.3903 6.57752C22.0003 5.18452 21.2278 4.08252 20.0948 3.30252C18.6648 2.31702 17.0203 1.96802 15.6003 1.75602C13.6348 1.46302 11.8548 1.42152 10.1593 1.62902C8.56879 1.82402 7.37229 2.13452 6.27929 2.63702C4.13879 3.62052 2.85379 5.21202 2.46079 7.36752C2.27029 8.41352 2.14179 9.36002 2.06729 10.2615C1.89579 12.3475 2.05129 14.193 2.54329 15.904C3.02279 17.572 3.86079 18.7635 5.10479 19.546C5.42229 19.7455 5.82779 19.89 6.22029 20.029C6.44329 20.108 6.65979 20.1845 6.83779 20.267C7.00179 20.343 7.00179 20.3575 7.00029 20.4945C6.98629 21.6805 7.00029 24.004 7.00029 24.004L7.00329 24.5H7.89479L8.04029 24.36C8.13429 24.2695 10.3428 22.1365 11.1288 21.278L11.2358 21.1575C11.3713 21.0025 11.3713 21.0025 11.5108 21C12.5728 20.979 13.6583 20.938 14.7368 20.8795C16.0438 20.808 17.5578 20.682 18.9833 20.087C20.2883 19.542 21.2403 18.6775 21.8128 17.517C22.4098 16.3065 22.7643 14.9955 22.8973 13.509C23.1303 10.8965 22.9648 8.62902 22.3903 6.57752ZM17.6913 16.7395C17.3643 17.274 16.8748 17.644 16.2983 17.885C15.8773 18.061 15.4473 18.024 15.0323 17.848C11.5483 16.374 8.81729 14.0505 7.01129 10.711C6.63929 10.0235 6.38029 9.27402 6.08379 8.54702C6.02279 8.39752 6.02679 8.22202 6.00029 8.05902C6.02579 6.88402 6.92679 6.22352 7.83679 6.02302C8.18479 5.94602 8.49229 6.06902 8.75079 6.31552C9.46479 6.99702 10.0293 7.78702 10.4548 8.67352C10.6413 9.06202 10.5573 9.40652 10.2398 9.69552C10.1743 9.75552 10.1053 9.81152 10.0343 9.86502C9.31129 10.409 9.20479 10.82 9.59029 11.6385C10.2468 13.0315 11.3353 13.9665 12.7443 14.5465C13.1158 14.6995 13.4653 14.624 13.7488 14.323C13.7868 14.2825 13.8298 14.244 13.8578 14.1975C14.4133 13.271 15.2188 13.363 15.9623 13.8915C16.4508 14.239 16.9258 14.6045 17.4088 14.959C18.1453 15.4995 18.1388 16.0075 17.6913 16.7395ZM13.0718 7.50002C12.9083 7.50002 12.7438 7.51352 12.5823 7.54052C12.3093 7.58652 12.0523 7.40202 12.0068 7.12952C11.9613 6.85702 12.1453 6.59952 12.4178 6.55402C12.6333 6.51852 12.8533 6.50002 13.0718 6.50002C15.2383 6.50002 17.0003 8.26252 17.0003 10.4285C17.0003 10.6485 16.9818 10.8685 16.9463 11.083C16.9048 11.327 16.6933 11.5 16.4533 11.5C16.4258 11.5 16.3978 11.498 16.3698 11.493C16.0978 11.447 15.9138 11.1895 15.9598 10.917C15.9868 10.7575 16.0003 10.5935 16.0003 10.4285C16.0003 8.81352 14.6868 7.50002 13.0718 7.50002ZM15.5003 10.5C15.5003 10.776 15.2763 11 15.0003 11C14.7243 11 14.5003 10.776 14.5003 10.5C14.5003 9.67302 13.8273 9.00002 13.0003 9.00002C12.7243 9.00002 12.5003 8.77602 12.5003 8.50002C12.5003 8.22402 12.7243 8.00002 13.0003 8.00002C14.3788 8.00002 15.5003 9.12152 15.5003 10.5ZM18.3548 11.6105C18.3023 11.843 18.0963 12 17.8678 12C17.8313 12 17.7938 11.996 17.7568 11.9875C17.4873 11.9265 17.3188 11.6585 17.3798 11.3895C17.4523 11.07 17.4888 10.7405 17.4888 10.409C17.4888 7.97802 15.5108 6.00002 13.0798 6.00002C12.7483 6.00002 12.4188 6.03652 12.0993 6.10902C11.8313 6.17102 11.5623 6.00152 11.5013 5.73202C11.4403 5.46252 11.6088 5.19502 11.8783 5.13402C12.2703 5.04502 12.6748 5.00002 13.0803 5.00002C16.0628 5.00002 18.4893 7.42652 18.4893 10.409C18.4893 10.8145 18.4438 11.219 18.3548 11.6105Z" fill="#728DB8"/>
</svg>
