<svg width="35" height="35" viewBox="0 0 35 35" fill="none" xmlns="http://www.w3.org/2000/svg">
<path d="M20.8329 0H14.1663C7.18374 0 1.50293 5.67948 1.50293 12.6607V18.6661C1.50293 23.865 4.69759 28.5374 9.50125 30.4403V34.3335C9.50125 34.5974 9.65656 34.836 9.89784 34.9427C9.98449 34.9813 10.0765 35 10.1678 35C10.3297 35 10.4904 34.9407 10.615 34.8274L14.4802 31.3268H20.8329C27.8154 31.3268 33.4962 25.6473 33.4962 18.6661V12.6607C33.4962 5.67948 27.8154 0 20.8329 0ZM32.1632 18.6661C32.1632 24.9121 27.0809 29.9937 20.8329 29.9937H14.2229C14.0576 29.9937 13.8983 30.055 13.7757 30.1663L10.8343 32.8305V29.9784C10.8343 29.6958 10.6563 29.4438 10.3897 29.3505C5.87201 27.7528 2.83598 23.4591 2.83598 18.6661V12.6607C2.83598 6.41466 7.91892 1.33305 14.1663 1.33305H20.8329C27.0809 1.33305 32.1632 6.41466 32.1632 12.6607V18.6661Z" fill="white"/>
<path d="M26.3079 20.324L22.2115 17.6632C21.7636 17.3719 21.2303 17.2733 20.7085 17.3812C20.1859 17.4912 19.7367 17.7998 19.4454 18.2497L19.2528 18.5457C17.4798 17.9598 15.5249 17.2113 14.3545 13.8233L14.839 13.4021C15.6708 12.6789 15.7582 11.4138 15.035 10.5807L11.8303 6.89411C11.589 6.61617 11.1678 6.58751 10.8898 6.82812L8.8776 8.57709C7.11263 10.1114 7.93713 12.381 8.2084 13.1268C8.2204 13.1601 8.23506 13.1921 8.25239 13.2235C8.32238 13.3488 9.99336 16.3308 12.6921 19.0796C15.4016 21.8396 20.2932 24.3884 20.4432 24.4624C21.0017 24.825 21.6303 24.999 22.2521 24.999C23.3439 24.999 24.4143 24.4638 25.0529 23.4826L26.5046 21.2471C26.7045 20.9372 26.6165 20.5246 26.3079 20.324ZM23.9344 22.7561C23.3339 23.6813 22.0928 23.9439 21.113 23.312C21.0644 23.2867 16.2047 20.7559 13.6433 18.1464C11.2491 15.7076 9.65943 12.9982 9.44281 12.6202C8.91492 11.1399 9.00824 10.2301 9.75208 9.58355L11.2618 8.27182L14.0292 11.4552C14.2751 11.7378 14.2465 12.151 13.9652 12.3956L13.1474 13.1061C12.9481 13.2794 12.8694 13.5534 12.9474 13.8053C14.3418 18.3364 17.0532 19.2262 19.0328 19.8761L19.3214 19.9714C19.61 20.0687 19.9259 19.9574 20.0912 19.7028L20.5638 18.9749C20.6611 18.8243 20.8104 18.7223 20.9837 18.6856C21.1577 18.6483 21.335 18.683 21.4856 18.781L25.0235 21.0785L23.9344 22.7561Z" fill="#F2923E"/>
<path d="M19.0213 10.8288C18.6667 10.7269 18.2981 10.9328 18.1975 11.2874C18.0968 11.6413 18.3021 12.0099 18.656 12.1106C19.6492 12.3932 20.4403 13.1857 20.7203 14.1795C20.8029 14.4727 21.0702 14.6654 21.3615 14.6654C21.4214 14.6654 21.4821 14.6574 21.5428 14.6407C21.8967 14.5407 22.1033 14.1728 22.0033 13.8182C21.5987 12.3825 20.4556 11.2368 19.0213 10.8288Z" fill="#F2923E"/>
<path d="M24.0931 14.8098C24.153 14.8098 24.2137 14.8018 24.2743 14.7851C24.6289 14.6851 24.8349 14.3165 24.7349 13.9626C23.9484 11.1745 21.7295 8.951 18.9435 8.15784C18.5895 8.05586 18.221 8.26315 18.1203 8.61707C18.0197 8.971 18.225 9.33959 18.5789 9.44023C20.9231 10.1068 22.79 11.979 23.4519 14.3245C23.5352 14.6178 23.8018 14.8098 24.0931 14.8098Z" fill="#F2923E"/>
<path d="M18.657 5.05344C18.3024 4.95146 17.9338 5.15742 17.8332 5.51268C17.7326 5.86661 17.9378 6.2352 18.2918 6.33584C22.2636 7.46561 25.4276 10.6369 26.5487 14.6114C26.6314 14.9047 26.8986 15.0973 27.1899 15.0973C27.2499 15.0973 27.3105 15.0893 27.3712 15.0727C27.7251 14.9727 27.9318 14.6041 27.8318 14.2502C26.586 9.83311 23.0708 6.30985 18.657 5.05344Z" fill="#F2923E"/>
</svg>
