<svg width="35" height="35" viewBox="0 0 35 35" fill="none" xmlns="http://www.w3.org/2000/svg">
<path d="M17.5 0C7.8501 0 0 7.8501 0 17.5C0 20.792 0.914712 23.9878 2.6499 26.7629C1.95865 29.1846 0.710096 33.7656 0.696635 33.8134C0.632019 34.0503 0.701346 34.3034 0.878365 34.4737C1.05538 34.6439 1.31115 34.7045 1.54404 34.6332L8.48077 32.4995C11.198 34.1364 14.3096 35 17.5 35C27.1499 35 35 27.1499 35 17.5C35 7.8501 27.1499 0 17.5 0ZM17.5 33.6538C14.4584 33.6538 11.4955 32.8037 8.93106 31.1964C8.82269 31.1285 8.69817 31.0941 8.57365 31.0941C8.50702 31.0941 8.44038 31.1042 8.37577 31.1238L2.31875 32.9882C2.76365 31.364 3.56327 28.459 4.02702 26.843C4.08087 26.6559 4.05058 26.4539 3.9449 26.2904C2.24471 23.6741 1.34615 20.6345 1.34615 17.5C1.34615 8.59317 8.59317 1.34615 17.5 1.34615C26.4068 1.34615 33.6538 8.59317 33.6538 17.5C33.6538 26.4068 26.4068 33.6538 17.5 33.6538Z" fill="white"/>
<path d="M28.9322 21.6236C27.6897 20.9337 26.6316 20.2418 25.8596 19.737C25.27 19.352 24.844 19.074 24.5316 18.9172C23.6587 18.4817 22.997 18.7893 22.7453 19.0437C22.7137 19.0753 22.6854 19.1097 22.6612 19.146C21.7545 20.5063 20.5706 21.8074 20.224 21.8774C19.8235 21.8148 17.9489 20.7493 16.0859 19.1978C14.1838 17.6128 12.987 16.095 12.8114 15.0611C14.0316 13.8052 14.4712 13.015 14.4712 12.1157C14.4712 11.1889 12.3092 7.31939 11.9182 6.92833C11.5258 6.5366 10.642 6.47535 9.29116 6.74458C9.16126 6.77083 9.04145 6.83477 8.94722 6.92833C8.78366 7.09189 4.95654 10.9937 6.7752 15.7228C8.77154 20.9128 13.8957 26.9456 20.4286 27.9256C21.171 28.0367 21.8669 28.0919 22.5185 28.0919C26.3617 28.0919 28.63 26.1581 29.2688 22.3223C29.3165 22.0416 29.1813 21.7616 28.9322 21.6236ZM20.6285 26.5943C13.72 25.5584 9.36856 18.7139 8.03183 15.2395C6.70587 11.7933 9.15116 8.72073 9.76501 8.02612C10.2644 7.94131 10.7901 7.90563 11.0095 7.93996C11.4679 8.57737 13.055 11.5759 13.125 12.1157C13.125 12.4691 13.0099 12.9611 11.6395 14.3322C11.513 14.458 11.4423 14.629 11.4423 14.808C11.4423 18.3323 18.8758 23.2215 20.1923 23.2215C21.3372 23.2215 22.8301 21.2972 23.6802 20.0432C23.7293 20.0453 23.8121 20.0621 23.9299 20.1213C24.1722 20.2431 24.5922 20.5171 25.1233 20.8644C25.8246 21.3228 26.7562 21.9312 27.856 22.5619C27.3565 24.9648 25.9606 27.3953 20.6285 26.5943Z" fill="#F2923E"/>
</svg>
