<svg width="25" height="25" viewBox="0 0 25 25" fill="none" xmlns="http://www.w3.org/2000/svg">
<path d="M19.8706 5.13325C17.906 3.16763 15.2935 2.08429 12.5102 2.08325C6.77474 2.08325 2.10703 6.74888 2.10495 12.4843C2.10391 14.3176 2.58307 16.1072 3.49349 17.6843L2.08203 22.9166L7.53307 21.628C9.05286 22.4572 10.7633 22.8937 12.5049 22.8947H12.5091C18.2435 22.8947 22.9112 18.228 22.9143 12.4937C22.9164 9.71346 21.8352 7.09992 19.8706 5.13325ZM17.6008 16.202C17.3841 16.8093 16.3227 17.3947 15.8456 17.4374C15.3685 17.4812 14.9216 17.653 12.7258 16.7874C10.0831 15.7458 8.41432 13.0364 8.28516 12.8635C8.15495 12.6895 7.2237 11.4541 7.2237 10.1749C7.2237 8.89575 7.89557 8.26659 8.13411 8.00721C8.37266 7.74679 8.65391 7.68221 8.82786 7.68221C9.00078 7.68221 9.17474 7.68221 9.32578 7.68846C9.5112 7.69575 9.71641 7.70513 9.9112 8.13742C10.1424 8.652 10.6477 9.93742 10.7122 10.0676C10.7768 10.1978 10.8206 10.3499 10.7341 10.5228C10.6477 10.6958 10.6039 10.8041 10.4747 10.9562C10.3445 11.1083 10.2018 11.2947 10.0852 11.4114C9.95495 11.5405 9.81953 11.6822 9.97057 11.9416C10.1227 12.202 10.6435 13.053 11.4164 13.7416C12.4102 14.627 13.2466 14.901 13.507 15.0322C13.7674 15.1624 13.9185 15.1405 14.0706 14.9666C14.2227 14.7937 14.7206 14.2083 14.8935 13.9478C15.0664 13.6874 15.2404 13.7312 15.4789 13.8176C15.7174 13.9041 16.9956 14.5333 17.2549 14.6635C17.5154 14.7937 17.6883 14.8583 17.7529 14.9666C17.8174 15.0739 17.8174 15.5947 17.6008 16.202Z" fill="#728DB8"/>
</svg>
